<svg width="50" height="50" viewBox="0 0 50 50" fill="none" xmlns="http://www.w3.org/2000/svg">
<path d="M24.8686 7.85367C20.5626 7.85367 17.072 11.9291 17.072 16.9564C17.072 20.443 18.751 23.471 21.2165 25L18.3574 26.325L10.7491 29.8537C10.0141 30.2212 9.64729 30.8445 9.64729 31.7265V40.1058C9.70775 41.1534 10.3363 42.1298 11.3555 42.1463H38.423C39.5865 42.0452 40.175 41.108 40.1865 40.1058V31.7265C40.1865 30.8445 39.8197 30.2212 39.0847 29.8537L31.7519 26.325L28.7045 24.8813C31.0688 23.3179 32.6653 20.3553 32.6653 16.9564C32.6653 11.9291 29.1746 7.85367 24.8686 7.85367ZM12.2926 11.0547C10.4396 11.125 8.971 11.9269 7.85525 13.2045C6.62108 14.7428 6.01942 16.5691 6.00779 18.3859C6.08358 21.0725 7.28567 23.6158 9.42567 24.9462L0.881792 28.9165C0.29375 29.137 0 29.6515 0 30.46V37.185C0.0459167 38.0768 0.509 38.8264 1.37729 38.8393H7.05579V31.7265C7.14975 29.8249 8.04275 28.2878 9.64729 27.5377L15.3243 24.837C15.7653 24.5797 16.188 24.23 16.5923 23.789C14.2516 20.1775 13.9266 15.8519 15.4351 12.0473C14.454 11.4468 13.3513 11.061 12.2926 11.0547ZM37.6504 11.0547C36.4386 11.08 35.3187 11.5263 34.3988 12.1565C35.8661 15.9955 35.4614 20.3238 33.2953 23.6782C33.7731 24.2294 34.2705 24.6522 34.785 24.9463L40.2419 27.5377C41.9043 28.4494 42.7615 30.0001 42.778 31.7265V38.8393H48.6211C49.5821 38.7564 49.9917 37.9899 50 37.185V30.4601C50 29.725 49.7063 29.2106 49.1182 28.9165L40.6836 24.8908C42.871 23.278 43.9694 20.8608 43.9906 18.3859C43.9325 16.4271 43.3341 14.6083 42.1432 13.2045C40.8988 11.8545 39.3553 11.069 37.6504 11.0547Z" fill="#223172"/>
</svg>
