<svg width="28" height="28" viewBox="0 0 28 28" fill="none" xmlns="http://www.w3.org/2000/svg">
<path d="M3.79 2.77301L24.86 12.85C25.073 12.9517 25.2528 13.1116 25.3787 13.3112C25.5046 13.5108 25.5714 13.742 25.5714 13.978C25.5714 14.214 25.5046 14.4452 25.3787 14.6448C25.2528 14.8444 25.073 15.0043 24.86 15.106L3.79 25.183C3.574 25.2865 3.33283 25.3257 3.09518 25.296C2.85753 25.2664 2.6334 25.169 2.44947 25.0157C2.26554 24.8623 2.12954 24.6593 2.05765 24.4308C1.98577 24.2024 1.98103 23.9581 2.044 23.727L4.152 15.999C4.17781 15.9043 4.23092 15.8193 4.30472 15.7545C4.37851 15.6898 4.46973 15.6482 4.567 15.635L14.777 14.248C14.8197 14.2419 14.8601 14.2249 14.8942 14.1987C14.9284 14.1724 14.9552 14.1377 14.972 14.098L14.99 14.036C14.9979 13.9802 14.9867 13.9233 14.9582 13.8747C14.9297 13.826 14.8856 13.7884 14.833 13.768L14.778 13.753L4.578 12.366C4.48091 12.3526 4.38991 12.3109 4.31631 12.2462C4.2427 12.1815 4.18974 12.0966 4.164 12.002L2.044 4.23001C1.98078 3.99887 1.98532 3.75443 2.0571 3.52581C2.12887 3.29718 2.26485 3.094 2.44883 2.94047C2.63281 2.78694 2.85705 2.68953 3.09483 2.65984C3.33261 2.63015 3.57391 2.66943 3.79 2.77301Z" fill="white"/>
</svg>
