<svg width="20" height="20" viewBox="0 0 20 20" fill="none" xmlns="http://www.w3.org/2000/svg">
<mask id="path-1-inside-1_46_23" fill="white">
<path d="M2.5 2.5C2.5 1.83696 2.76339 1.20107 3.23223 0.732233C3.70107 0.263392 4.33696 0 5 0L15 0C15.663 0 16.2989 0.263392 16.7678 0.732233C17.2366 1.20107 17.5 1.83696 17.5 2.5V19.375C17.4999 19.4881 17.4692 19.599 17.4111 19.6959C17.353 19.7929 17.2697 19.8723 17.17 19.9257C17.0703 19.979 16.9581 20.0044 16.8451 19.999C16.7322 19.9936 16.6229 19.9576 16.5287 19.895L10 16.3762L3.47125 19.895C3.37713 19.9576 3.26779 19.9936 3.15486 19.999C3.04194 20.0044 2.92967 19.979 2.83 19.9257C2.73033 19.8723 2.64701 19.7929 2.58889 19.6959C2.53078 19.599 2.50006 19.4881 2.5 19.375V2.5ZM5 1.25C4.66848 1.25 4.35054 1.3817 4.11612 1.61612C3.8817 1.85054 3.75 2.16848 3.75 2.5V18.2075L9.65375 15.105C9.75633 15.0367 9.87679 15.0003 10 15.0003C10.1232 15.0003 10.2437 15.0367 10.3463 15.105L16.25 18.2075V2.5C16.25 2.16848 16.1183 1.85054 15.8839 1.61612C15.6495 1.3817 15.3315 1.25 15 1.25H5Z"/>
</mask>
<path d="M2.5 2.5C2.5 1.83696 2.76339 1.20107 3.23223 0.732233C3.70107 0.263392 4.33696 0 5 0L15 0C15.663 0 16.2989 0.263392 16.7678 0.732233C17.2366 1.20107 17.5 1.83696 17.5 2.5V19.375C17.4999 19.4881 17.4692 19.599 17.4111 19.6959C17.353 19.7929 17.2697 19.8723 17.17 19.9257C17.0703 19.979 16.9581 20.0044 16.8451 19.999C16.7322 19.9936 16.6229 19.9576 16.5287 19.895L10 16.3762L3.47125 19.895C3.37713 19.9576 3.26779 19.9936 3.15486 19.999C3.04194 20.0044 2.92967 19.979 2.83 19.9257C2.73033 19.8723 2.64701 19.7929 2.58889 19.6959C2.53078 19.599 2.50006 19.4881 2.5 19.375V2.5ZM5 1.25C4.66848 1.25 4.35054 1.3817 4.11612 1.61612C3.8817 1.85054 3.75 2.16848 3.75 2.5V18.2075L9.65375 15.105C9.75633 15.0367 9.87679 15.0003 10 15.0003C10.1232 15.0003 10.2437 15.0367 10.3463 15.105L16.25 18.2075V2.5C16.25 2.16848 16.1183 1.85054 15.8839 1.61612C15.6495 1.3817 15.3315 1.25 15 1.25H5Z" fill="#223172"/>
<path d="M5 0V-30V0ZM17.5 19.375L47.5 19.3905L47.5 19.3827V19.375H17.5ZM16.5287 19.895L33.1488 -5.0805L31.9887 -5.85248L30.762 -6.51361L16.5287 19.895ZM10 16.3762L24.2332 -10.0324L10 -17.7035L-4.23325 -10.0324L10 16.3762ZM3.47125 19.895L-10.762 -6.51361L-11.9887 -5.85248L-13.1488 -5.0805L3.47125 19.895ZM2.5 19.375H-27.5V19.3827L-27.5 19.3905L2.5 19.375ZM5 1.25V-28.75V1.25ZM3.75 2.5H-26.25H3.75ZM3.75 18.2075H-26.25V67.8631L17.7057 44.7638L3.75 18.2075ZM9.65375 15.105L23.6095 41.6613L24.9825 40.9398L26.2738 40.0805L9.65375 15.105ZM10 15.0003V45.0003V15.0003ZM10.3463 15.105L-6.27375 40.0805L-4.98247 40.9398L-3.60946 41.6613L10.3463 15.105ZM16.25 18.2075L2.29429 44.7638L46.25 67.8631V18.2075H16.25ZM32.5 2.5C32.5 9.79345 29.6027 16.7882 24.4454 21.9454L-17.981 -20.481C-24.0759 -14.386 -27.5 -6.11953 -27.5 2.5H32.5ZM24.4454 21.9454C19.2882 27.1027 12.2935 30 5 30V-30C-3.61954 -30 -11.886 -26.5759 -17.981 -20.481L24.4454 21.9454ZM5 30H15V-30H5V30ZM15 30C7.70654 30 0.711808 27.1027 -4.44544 21.9454L37.981 -20.481C31.886 -26.5759 23.6195 -30 15 -30V30ZM-4.44544 21.9454C-9.60268 16.7882 -12.5 9.79347 -12.5 2.5H47.5C47.5 -6.11955 44.0759 -14.386 37.981 -20.481L-4.44544 21.9454ZM-12.5 2.5V19.375H47.5V2.5H-12.5ZM-12.5 19.3595C-12.4973 14.0461 -11.0534 8.83285 -8.32205 4.27503L43.1443 35.1169C45.9918 30.3651 47.4971 24.93 47.5 19.3905L-12.5 19.3595ZM-8.32205 4.27503C-5.59074 -0.282747 -1.67435 -4.01431 3.00997 -6.52226L31.33 46.3736C36.2137 43.7589 40.2967 39.8686 43.1443 35.1169L-8.32205 4.27503ZM3.00997 -6.52226C7.69432 -9.03023 12.9712 -10.2207 18.2786 -9.96677L15.4116 49.9647C20.9449 50.2294 26.4463 48.9883 31.33 46.3736L3.00997 -6.52226ZM18.2786 -9.96677C23.5859 -9.71288 28.7251 -8.02426 33.1488 -5.0805L-0.0912542 44.8705C4.52068 47.9395 9.87856 49.7 15.4116 49.9647L18.2786 -9.96677ZM30.762 -6.51361L24.2332 -10.0324L-4.23325 42.7849L2.2955 46.3036L30.762 -6.51361ZM-4.23325 -10.0324L-10.762 -6.51361L17.7045 46.3036L24.2332 42.7849L-4.23325 -10.0324ZM-13.1488 -5.0805C-8.72508 -8.02424 -3.5859 -9.71288 1.72138 -9.96677L4.58835 49.9647C10.1215 49.7 15.4793 47.9395 20.0913 44.8705L-13.1488 -5.0805ZM1.72138 -9.96677C7.02881 -10.2207 12.3057 -9.03022 16.99 -6.52226L-11.33 46.3736C-6.44637 48.9883 -0.944931 50.2294 4.58835 49.9647L1.72138 -9.96677ZM16.99 -6.52226C21.6744 -4.01431 25.5907 -0.282747 28.3221 4.27503L-23.1443 35.1169C-20.2967 39.8686 -16.2137 43.7589 -11.33 46.3736L16.99 -6.52226ZM28.3221 4.27503C31.0533 8.83276 32.4973 14.046 32.5 19.3595L-27.5 19.3905C-27.4971 24.9301 -25.9918 30.3652 -23.1443 35.1169L28.3221 4.27503ZM32.5 19.375V2.5H-27.5V19.375H32.5ZM5 -28.75C-3.28801 -28.75 -11.2366 -25.4576 -17.0971 -19.5971L25.3293 22.8293C19.9376 28.221 12.625 31.25 5 31.25V-28.75ZM-17.0971 -19.5971C-22.9576 -13.7366 -26.25 -5.78801 -26.25 2.5H33.75C33.75 10.125 30.721 17.4376 25.3293 22.8293L-17.0971 -19.5971ZM-26.25 2.5V18.2075H33.75V2.5H-26.25ZM17.7057 44.7638L23.6095 41.6613L-4.30196 -11.4513L-10.2057 -8.34882L17.7057 44.7638ZM26.2738 40.0805C21.4526 43.2887 15.7908 45.0003 10 45.0003V-14.9997C3.96273 -14.9997 -1.93996 -13.2153 -6.96625 -9.8705L26.2738 40.0805ZM10 45.0003C4.20918 45.0003 -1.45259 43.2887 -6.27375 40.0805L26.9662 -9.8705C21.9399 -13.2153 16.0372 -14.9997 10 -14.9997V45.0003ZM-3.60946 41.6613L2.29429 44.7638L30.2057 -8.34882L24.302 -11.4513L-3.60946 41.6613ZM46.25 18.2075V2.5H-13.75V18.2075H46.25ZM46.25 2.5C46.25 -5.78803 42.9576 -13.7366 37.0971 -19.5971L-5.32932 22.8293C-10.721 17.4377 -13.75 10.125 -13.75 2.5H46.25ZM37.0971 -19.5971C31.2366 -25.4576 23.288 -28.75 15 -28.75V31.25C7.37502 31.25 0.0623488 28.221 -5.32932 22.8293L37.0971 -19.5971ZM15 -28.75H5V31.25H15V-28.75Z" fill="#223172" mask="url(#path-1-inside-1_46_23)"/>
</svg>
