<svg width="50" height="50" viewBox="0 0 50 50" fill="none" xmlns="http://www.w3.org/2000/svg">
<path d="M10.4167 10.4167H22.9167C24.0625 10.4167 25 9.47917 25 8.33333C25 7.1875 24.0625 6.25 22.9167 6.25H10.4167C8.125 6.25 6.25 8.125 6.25 10.4167V39.5833C6.25 41.875 8.125 43.75 10.4167 43.75H22.9167C24.0625 43.75 25 42.8125 25 41.6667C25 40.5208 24.0625 39.5833 22.9167 39.5833H10.4167V10.4167Z" fill="#223172"/>
<path d="M43.0208 24.2708L37.2083 18.4583C37.0634 18.3095 36.8774 18.2072 36.6741 18.1647C36.4708 18.1222 36.2594 18.1413 36.067 18.2196C35.8746 18.2979 35.7099 18.4318 35.5941 18.6043C35.4782 18.7767 35.4164 18.9798 35.4167 19.1875V22.9167H20.8333C19.6875 22.9167 18.75 23.8542 18.75 25C18.75 26.1458 19.6875 27.0833 20.8333 27.0833H35.4167V30.8125C35.4167 31.75 36.5417 32.2083 37.1875 31.5417L43 25.7292C43.4167 25.3333 43.4167 24.6667 43.0208 24.2708Z" fill="#223172"/>
</svg>
