<svg width="50" height="50" viewBox="0 0 50 50" fill="none" xmlns="http://www.w3.org/2000/svg">
<path d="M5 12.5C5 11.1739 5.52678 9.90215 6.46447 8.96447C7.40215 8.02678 8.67392 7.5 10 7.5H27.5C28.8261 7.5 30.0979 8.02678 31.0355 8.96447C31.9732 9.90215 32.5 11.1739 32.5 12.5V22.5C32.5 23.8261 31.9732 25.0979 31.0355 26.0355C30.0979 26.9732 28.8261 27.5 27.5 27.5H22.5L15 35V27.5H10C8.67392 27.5 7.40215 26.9732 6.46447 26.0355C5.52678 25.0979 5 23.8261 5 22.5V12.5Z" fill="#223172"/>
<path d="M37.5 17.5V22.5C37.5 25.1522 36.4465 27.6957 34.5711 29.5711C32.6957 31.4464 30.1522 32.5 27.5 32.5H24.57L20.155 36.9175C20.855 37.29 21.6525 37.5 22.5 37.5H27.5L35 45V37.5H40C41.3261 37.5 42.5979 36.9732 43.5356 36.0355C44.4732 35.0979 45 33.8261 45 32.5V22.5C45 21.1739 44.4732 19.9021 43.5356 18.9645C42.5979 18.0268 41.3261 17.5 40 17.5H37.5Z" fill="#223172"/>
</svg>
