<svg width="40" height="40" viewBox="0 0 40 40" fill="none" xmlns="http://www.w3.org/2000/svg">
<path d="M19.8949 6.28293C16.4501 6.28293 13.6576 9.54326 13.6576 13.5651C13.6576 16.3544 15.0008 18.7768 16.9732 20L14.6859 21.06L8.5993 23.883C8.0113 24.177 7.71783 24.6756 7.71783 25.3812V32.0846C7.7662 32.9227 8.26907 33.7038 9.08437 33.7171H30.7384C31.6692 33.6361 32.14 32.8864 32.1492 32.0846V25.3812C32.1492 24.6756 31.8557 24.177 31.2678 23.883L25.4015 21.06L22.9636 19.905C24.855 18.6543 26.1323 16.2842 26.1323 13.5651C26.1322 9.54326 23.3397 6.28293 19.8949 6.28293V6.28293ZM9.8341 8.84373C8.35167 8.90003 7.1768 9.54149 6.2842 10.5636C5.29687 11.7942 4.81553 13.2553 4.80623 14.7087C4.86687 16.858 5.82853 18.8927 7.54053 19.9569L0.705433 23.1332C0.235 23.3096 0 23.7212 0 24.368V29.748C0.0367333 30.4615 0.4072 31.0611 1.10183 31.0714H5.64463V25.3812C5.7198 23.8599 6.4342 22.6302 7.71783 22.0302L12.2594 19.8696C12.6122 19.6638 12.9504 19.384 13.2738 19.0312C11.4013 16.142 11.1413 12.6815 12.3481 9.63783C11.5632 9.15746 10.6811 8.84876 9.8341 8.84373V8.84373ZM30.1203 8.84373C29.1509 8.86403 28.255 9.22103 27.519 9.7252C28.6929 12.7964 28.3691 16.2591 26.6363 18.9425C27.0185 19.3835 27.4164 19.7218 27.828 19.957L32.1935 22.0302C33.5234 22.7595 34.2092 24.0001 34.2224 25.3812V31.0715H38.8969C39.6657 31.0051 39.9933 30.3919 40 29.748V24.3681C40 23.78 39.765 23.3685 39.2946 23.1332L32.5469 19.9126C34.2968 18.6224 35.1755 16.6886 35.1925 14.7087C35.146 13.1417 34.6673 11.6866 33.7145 10.5636C32.719 9.48363 31.4842 8.85516 30.1203 8.84373V8.84373Z" fill="#223172"/>
</svg>
