<svg width="684" height="509" viewBox="0 0 684 509" fill="none" xmlns="http://www.w3.org/2000/svg">
<path d="M683.111 447.301H0V447.643H683.111V447.301Z" fill="#20316E"/>
<path d="M614.664 469.284H569.414V469.625H614.664V469.284Z" fill="#20316E"/>
<path d="M452.52 473H440.648V473.342H452.52V473Z" fill="#EBEBEB"/>
<path d="M568.048 456.605H541.83V456.947H568.048V456.605Z" fill="#EBEBEB"/>
<path d="M130.679 458.901H71.6721V459.242H130.679V458.901Z" fill="#20316E"/>
<path d="M151.5 458.901H142.852V459.242H151.5V458.901Z" fill="#20316E"/>
<path d="M307.605 464.666H179.617V465.008H307.605V464.666Z" fill="#EBEBEB"/>
<path d="M323.795 386.368H59.9908C57.9242 386.364 55.9435 385.541 54.4834 384.078C53.0234 382.616 52.2034 380.633 52.2034 378.567V7.73282C52.2214 5.67806 53.0493 3.71336 54.5074 2.2655C55.9655 0.817627 57.936 0.00351992 59.9908 0H323.795C325.864 0 327.848 0.821903 329.311 2.2849C330.774 3.7479 331.596 5.73214 331.596 7.80113V378.567C331.596 380.636 330.774 382.62 329.311 384.083C327.848 385.546 325.864 386.368 323.795 386.368ZM59.9908 0.273246C58.0148 0.276865 56.1209 1.06438 54.725 2.46293C53.329 3.86148 52.5449 5.75678 52.5449 7.73282V378.567C52.5449 380.543 53.329 382.438 54.725 383.837C56.1209 385.235 58.0148 386.023 59.9908 386.026H323.795C325.772 386.023 327.667 385.236 329.066 383.837C330.464 382.439 331.251 380.544 331.254 378.567V7.73282C331.251 5.75553 330.464 3.86025 329.066 2.46209C327.667 1.06393 325.772 0.276857 323.795 0.273246H59.9908Z" fill="#20316E"/>
<path d="M619.323 386.368H355.505C353.437 386.364 351.455 385.541 349.993 384.079C348.53 382.617 347.707 380.635 347.704 378.567V7.73282C347.725 5.67681 348.556 3.71213 350.017 2.26464C351.477 0.81715 353.449 0.00348153 355.505 0H619.323C621.375 0.0071105 623.342 0.822807 624.797 2.27029C626.252 3.71778 627.078 5.68042 627.096 7.73282V378.567C627.096 380.631 626.278 382.611 624.821 384.073C623.364 385.536 621.387 386.361 619.323 386.368ZM355.505 0.273246C353.528 0.276857 351.632 1.06393 350.234 2.46209C348.836 3.86025 348.049 5.75553 348.045 7.73282V378.567C348.049 380.544 348.836 382.439 350.234 383.837C351.632 385.236 353.528 386.023 355.505 386.026H619.323C621.3 386.023 623.195 385.236 624.593 383.837C625.991 382.439 626.778 380.544 626.782 378.567V7.73282C626.778 5.75553 625.991 3.86025 624.593 2.46209C623.195 1.06393 621.3 0.276857 619.323 0.273246H355.505Z" fill="#20316E"/>
<path d="M550.301 107.098C550.301 107.098 551.913 96.5373 544.208 89.7745C536.502 83.0117 537.185 78.9813 539.385 78.4485C541.584 77.9157 543.62 84.6922 546.995 86.5502C546.995 86.5502 547.104 76.9047 543.675 73.3525C540.246 69.8003 538.428 60.6466 541.694 60.4963C544.959 60.3461 545.314 65.9612 545.984 69.896C546.653 73.8307 550.301 79.4595 550.301 79.4595C550.301 79.4595 551.011 70.8387 553.238 67.2865C555.465 63.7343 549.536 55.6053 551.872 52.0531C554.208 48.5009 558.225 55.2637 557.883 62.8872C557.542 70.5108 552.419 78.6125 553.648 86.5639C553.648 86.5639 555.889 80.9897 557.897 80.4842C559.905 79.9787 561.996 76.2762 563.294 74.91C564.592 73.5438 566.34 78.2846 563.294 82.6838C560.247 87.083 552.473 98.8462 553.648 108.355L550.301 107.098Z" fill="white"/>
<path d="M545.697 102.289L543.183 118.11C542.999 119.259 543.067 120.434 543.381 121.554C543.695 122.675 544.249 123.713 545.003 124.599C545.758 125.485 546.696 126.196 547.752 126.685C548.808 127.173 549.957 127.426 551.121 127.428H553.853C555.017 127.426 556.167 127.172 557.223 126.684C558.28 126.196 559.218 125.485 559.974 124.599C560.73 123.714 561.284 122.676 561.6 121.555C561.916 120.435 561.986 119.26 561.805 118.11L559.277 102.289H545.697Z" fill="white"/>
<path d="M583.842 121.58H405.632V130.734H583.842V121.58Z" fill="#E0E0E0"/>
<path d="M421.685 87.8345H413.829V121.58H421.685V87.8345Z" fill="white"/>
<path d="M459.652 87.8345H451.796V121.58H459.652V87.8345Z" fill="white"/>
<path d="M502.745 86.9741L495.003 88.3085L500.736 121.564L508.477 120.229L502.745 86.9741Z" fill="white"/>
<path d="M431.412 92.2747H423.556V121.58H431.412V92.2747Z" fill="white"/>
<path d="M449.46 92.2747H441.604V121.58H449.46V92.2747Z" fill="white"/>
<path d="M495.01 92.2747H487.154V121.58H495.01V92.2747Z" fill="white"/>
<path d="M469.963 91.2535L462.294 92.9579L468.652 121.565L476.321 119.861L469.963 91.2535Z" fill="white"/>
<path d="M438.189 86.154H434.268V121.58H438.189V86.154Z" fill="white"/>
<path d="M484.886 86.154H480.965V121.58H484.886V86.154Z" fill="white"/>
<path d="M405.618 199.1L583.828 199.1V189.946L405.618 189.946V199.1Z" fill="#E0E0E0"/>
<path d="M567.789 189.946H575.644V156.2H567.789V189.946Z" fill="white"/>
<path d="M529.808 189.946H537.663V156.2H529.808V189.946Z" fill="white"/>
<path d="M480.991 188.591L488.732 189.926L494.465 156.67L486.723 155.336L480.991 188.591Z" fill="white"/>
<path d="M558.047 189.932H565.903V160.627H558.047V189.932Z" fill="white"/>
<path d="M540 189.932H547.855V160.627H540V189.932Z" fill="white"/>
<path d="M494.45 189.932H502.305V160.627H494.45V189.932Z" fill="white"/>
<path d="M513.164 188.207L520.833 189.911L527.19 161.304L519.522 159.599L513.164 188.207Z" fill="white"/>
<path d="M551.257 189.946H555.178V154.52H551.257V189.946Z" fill="white"/>
<path d="M504.573 189.946H508.495V154.52H504.573V189.946Z" fill="white"/>
<path d="M422.737 189.645H460.991V163.236H422.737V189.645Z" fill="white"/>
<path d="M184.481 336.938V361.434L174.152 368.962H222.38L206.969 363.238V338.646L184.481 336.938Z" fill="#E0E0E0"/>
<path d="M137.005 368.252V445.389H314.614V368.252H137.005ZM310.693 398.473H142.196V373.252H310.693V398.473Z" fill="#EBEBEB"/>
<path d="M310.693 373.252H275.963V398.473H310.693V373.252Z" fill="#E0E0E0"/>
<path d="M185.164 385.862H142.196V398.473H185.164V385.862Z" fill="#E0E0E0"/>
<path d="M220.672 390.986H188.32V398.473H220.672V390.986Z" fill="#E0E0E0"/>
<path d="M258.968 383.157H228.146V398.473H258.968V383.157Z" fill="#E0E0E0"/>
<path d="M172.732 403.965L171.803 406.984H159.438L158.523 403.965H142.196V437.451H196.381V403.965H172.732Z" fill="#E0E0E0"/>
<path d="M237.135 403.965L236.206 406.984H223.842L222.913 403.965H199.264V437.451H253.462V403.965H237.135Z" fill="#E0E0E0"/>
<path d="M286.879 403.965L285.964 406.984H273.6L272.671 403.965H256.344V437.451H310.529V403.965H286.879Z" fill="#E0E0E0"/>
<path d="M284.352 247.259H121.676C119.012 247.259 116.853 249.418 116.853 252.082V346.747C116.853 349.411 119.012 351.57 121.676 351.57H284.352C287.016 351.57 289.175 349.411 289.175 346.747V252.082C289.175 249.418 287.016 247.259 284.352 247.259Z" fill="#E0E0E0"/>
<path d="M288.396 247.259H125.72C123.056 247.259 120.897 249.418 120.897 252.082V346.747C120.897 349.411 123.056 351.57 125.72 351.57H288.396C291.06 351.57 293.219 349.411 293.219 346.747V252.082C293.219 249.418 291.06 247.259 288.396 247.259Z" fill="#E6E6E6"/>
<path d="M288.15 346.488V252.328H125.952V346.488H288.15Z" fill="#F0F0F0"/>
<path d="M117.099 86.6049V135.475H186.121V86.6049H117.099Z" fill="#E0E0E0"/>
<path d="M120.337 89.8018V132.291H182.869V89.8018H120.337Z" fill="#EBEBEB"/>
<path d="M219.197 147.989H175.273V210.248H219.197V147.989Z" fill="#E0E0E0"/>
<path d="M216.341 150.913H178.142V207.324H216.341V150.913Z" fill="#EBEBEB"/>
<path d="M244.171 66.3165H195.397V135.461H244.171V66.3165Z" fill="#E0E0E0"/>
<path d="M241.002 69.5681H198.581V132.209H241.002V69.5681Z" fill="#EBEBEB"/>
<path d="M288.164 186.257V147.989H234.116V186.257H288.164Z" fill="#E0E0E0"/>
<path d="M285.623 183.757V150.489H236.657V183.757H285.623Z" fill="#EBEBEB"/>
<path d="M341.556 509C487.854 509 606.453 502.076 606.453 493.534C606.453 484.993 487.854 478.069 341.556 478.069C195.257 478.069 76.6588 484.993 76.6588 493.534C76.6588 502.076 195.257 509 341.556 509Z" fill="#20316E"/>
<path d="M345.654 54.6489V486.512C345.654 487.349 345.488 488.178 345.165 488.95C344.842 489.722 344.368 490.422 343.772 491.009C343.176 491.597 342.469 492.06 341.692 492.371C340.915 492.683 340.084 492.837 339.247 492.824H121.812C121.056 492.828 120.306 492.68 119.607 492.389C118.909 492.098 118.276 491.669 117.746 491.129C117.216 490.589 116.8 489.948 116.522 489.244C116.244 488.54 116.111 487.788 116.129 487.031V54.1024C116.102 53.432 116.207 52.7627 116.439 52.133C116.671 51.5034 117.024 50.9257 117.48 50.4331C117.936 49.9406 118.484 49.5429 119.094 49.2629C119.704 48.9829 120.363 48.8261 121.034 48.8015H172.65C173.434 48.8317 174.192 49.091 174.831 49.5475C175.469 50.004 175.96 50.6376 176.243 51.37L178.606 57.1901C178.898 57.93 179.404 58.5665 180.058 59.0189C180.712 59.4713 181.486 59.7192 182.281 59.7313H279.461C280.253 59.728 281.026 59.4882 281.681 59.0428C282.335 58.5973 282.842 57.9665 283.136 57.2311L285.541 51.3836C285.835 50.6422 286.34 50.003 286.993 49.5443C287.646 49.0856 288.418 48.8275 289.216 48.8015H340.012C341.534 48.8338 342.981 49.4667 344.038 50.5622C345.095 51.6577 345.676 53.1268 345.654 54.6489Z" fill="#263238"/>
<path d="M345.613 75.7844H116.088V464.133H345.613V75.7844Z" fill="#20316E"/>
<path opacity="0.2" d="M345.613 75.7844H116.088V464.133H345.613V75.7844Z" fill="white"/>
<path opacity="0.6" d="M143.207 66.2072H146.172V62.2451H143.207V66.2072Z" fill="white"/>
<path opacity="0.6" d="M138.371 66.2072H141.336V60.9335H138.371V66.2072Z" fill="white"/>
<path opacity="0.6" d="M133.535 66.2072H136.499V59.6083H133.535V66.2072Z" fill="white"/>
<path opacity="0.6" d="M128.685 66.2072H131.649V58.2831H128.685V66.2072Z" fill="white"/>
<path opacity="0.6" d="M319.027 60.7969H317.264V64.759H319.027V60.7969Z" fill="white"/>
<path opacity="0.6" d="M320.229 66.2072H334.26V59.3624H320.229V66.2072Z" fill="white"/>
<path d="M320.092 82.4516H130.789C128.125 82.4516 125.966 84.6108 125.966 87.2743V124.395C125.966 127.058 128.125 129.217 130.789 129.217H320.092C322.756 129.217 324.915 127.058 324.915 124.395V87.2743C324.915 84.6108 322.756 82.4516 320.092 82.4516Z" fill="#20316E"/>
<path opacity="0.5" d="M320.092 82.4516H130.789C128.125 82.4516 125.966 84.6108 125.966 87.2743V124.395C125.966 127.058 128.125 129.217 130.789 129.217H320.092C322.756 129.217 324.915 127.058 324.915 124.395V87.2743C324.915 84.6108 322.756 82.4516 320.092 82.4516Z" fill="white"/>
<path opacity="0.4" d="M162.84 104.83C162.84 107.562 162.03 110.233 160.512 112.504C158.995 114.776 156.837 116.546 154.313 117.591C151.79 118.637 149.012 118.91 146.333 118.377C143.654 117.844 141.192 116.529 139.261 114.597C137.329 112.665 136.013 110.204 135.48 107.525C134.948 104.846 135.221 102.068 136.267 99.5445C137.312 97.0205 139.082 94.8633 141.354 93.3456C143.625 91.8279 146.296 91.0178 149.028 91.0178C150.842 91.016 152.639 91.372 154.316 92.0655C155.992 92.759 157.516 93.7764 158.799 95.0593C160.082 96.3423 161.099 97.8657 161.792 99.5423C162.486 101.219 162.842 103.016 162.84 104.83Z" fill="black"/>
<path opacity="0.8" d="M159.479 113.875C158.184 115.375 156.58 116.579 154.778 117.404C152.976 118.229 151.017 118.656 149.034 118.656C147.052 118.656 145.093 118.229 143.291 117.404C141.488 116.579 139.885 115.375 138.59 113.875C139.092 112.083 140.048 110.45 141.364 109.134C142.68 107.818 144.312 106.863 146.104 106.36C145.143 105.73 144.41 104.805 144.016 103.725C143.622 102.645 143.587 101.467 143.916 100.365C144.245 99.2631 144.921 98.297 145.843 97.6101C146.765 96.9232 147.885 96.5522 149.034 96.5522C150.184 96.5522 151.303 96.9232 152.226 97.6101C153.148 98.297 153.824 99.2631 154.153 100.365C154.482 101.467 154.447 102.645 154.053 103.725C153.659 104.805 152.926 105.73 151.965 106.36C153.753 106.87 155.382 107.828 156.697 109.143C158.012 110.458 158.969 112.086 159.479 113.875Z" fill="white"/>
<path opacity="0.4" d="M224.238 93.0398H172.199V98.45H224.238V93.0398Z" fill="white"/>
<path opacity="0.4" d="M312.482 107.672H172.199V111.634H312.482V107.672Z" fill="white"/>
<path opacity="0.4" d="M312.482 114.886H172.199V118.848H312.482V114.886Z" fill="white"/>
<path d="M320.092 135.734H130.789C128.125 135.734 125.966 137.893 125.966 140.557V286.975C125.966 289.639 128.125 291.798 130.789 291.798H320.092C322.756 291.798 324.915 289.639 324.915 286.975V140.557C324.915 137.893 322.756 135.734 320.092 135.734Z" fill="#20316E"/>
<path opacity="0.5" d="M320.092 135.734H130.789C128.125 135.734 125.966 137.893 125.966 140.557V286.975C125.966 289.639 128.125 291.798 130.789 291.798H320.092C322.756 291.798 324.915 289.639 324.915 286.975V140.557C324.915 137.893 322.756 135.734 320.092 135.734Z" fill="white"/>
<path opacity="0.4" d="M162.84 158.113C162.84 160.845 162.03 163.515 160.512 165.787C158.995 168.058 156.837 169.829 154.313 170.874C151.79 171.92 149.012 172.193 146.333 171.66C143.654 171.127 141.192 169.812 139.261 167.88C137.329 165.948 136.013 163.487 135.48 160.808C134.948 158.128 135.221 155.351 136.267 152.827C137.312 150.303 139.082 148.146 141.354 146.628C143.625 145.111 146.296 144.3 149.028 144.3C150.842 144.299 152.639 144.655 154.316 145.348C155.992 146.042 157.516 147.059 158.799 148.342C160.082 149.625 161.099 151.148 161.792 152.825C162.486 154.502 162.842 156.299 162.84 158.113Z" fill="black"/>
<path opacity="0.8" d="M159.479 167.157C158.184 168.658 156.58 169.862 154.778 170.687C152.976 171.512 151.017 171.939 149.034 171.939C147.052 171.939 145.093 171.512 143.291 170.687C141.488 169.862 139.885 168.658 138.59 167.157C139.092 165.365 140.048 163.733 141.364 162.417C142.68 161.101 144.312 160.146 146.104 159.643C145.143 159.012 144.41 158.088 144.016 157.008C143.622 155.928 143.587 154.749 143.916 153.648C144.245 152.546 144.921 151.58 145.843 150.893C146.765 150.206 147.885 149.835 149.034 149.835C150.184 149.835 151.303 150.206 152.226 150.893C153.148 151.58 153.824 152.546 154.153 153.648C154.482 154.749 154.447 155.928 154.053 157.008C153.659 158.088 152.926 159.012 151.965 159.643C153.753 160.153 155.382 161.111 156.697 162.426C158.012 163.74 158.969 165.369 159.479 167.157Z" fill="white"/>
<path opacity="0.4" d="M224.238 146.322H172.199V151.733H224.238V146.322Z" fill="white"/>
<path opacity="0.4" d="M312.482 160.955H172.199V164.917H312.482V160.955Z" fill="white"/>
<path opacity="0.4" d="M312.469 175.683H137.005V279.01H312.469V175.683Z" fill="white"/>
<path d="M312.469 258.845V279.01H175.396C176.762 276.674 178.278 274.392 179.822 272.179C181.366 269.966 183.921 265.539 186.653 264.255C186.907 264.142 187.173 264.059 187.446 264.009L188.252 262.943L188.429 262.834C188.594 262.731 188.768 262.644 188.949 262.574C189.837 262.165 191.681 263.189 192.979 262.574C193.184 262.438 193.403 262.287 193.607 262.124C194.974 260.757 197.31 256.659 199.154 256.659C201.463 256.768 205.343 250.046 206.546 248.53C208.039 246.544 209.635 244.637 211.327 242.819C211.903 242.104 212.585 241.482 213.349 240.974C214.511 240.36 215.877 240.687 216.929 239.731C217.162 239.475 217.423 239.246 217.708 239.048C218.184 238.856 218.697 238.772 219.21 238.802C221.142 238.447 222.911 237.491 224.265 236.07C226.369 234.225 228.473 232.395 230.55 230.523C233.023 228.31 236.903 233.255 239.308 234.321C240.073 234.649 240.906 234.826 241.671 235.154C243.201 235.958 244.586 237.011 245.77 238.269C249.406 241.408 253.315 244.215 257.451 246.658C258.148 245.879 259.446 246.467 260.47 246.248C260.973 246.101 261.438 245.85 261.837 245.51L269.119 240.168C269.421 239.879 269.821 239.714 270.239 239.704C272.479 239.909 274.051 238.037 275.868 236.971C276.178 236.733 276.556 236.6 276.947 236.589C277.453 236.589 277.821 237.067 278.177 237.436C279.828 239.24 282.063 240.401 284.489 240.715C285.329 240.705 286.157 240.927 286.879 241.357C287.315 241.801 287.675 242.313 287.945 242.873C288.66 243.882 289.548 244.756 290.568 245.456C293.768 247.799 297.088 249.974 300.514 251.972L305.61 255.074H305.692C307.277 256.03 308.876 257 310.529 257.806C311.198 258.216 311.854 258.558 312.469 258.845Z" fill="#20316E"/>
<path opacity="0.4" d="M312.469 258.845V279.01H175.396C176.762 276.674 178.278 274.392 179.822 272.179C181.366 269.966 183.921 265.539 186.653 264.255C186.907 264.142 187.173 264.059 187.446 264.009L188.252 262.943L188.429 262.834C188.594 262.731 188.768 262.644 188.949 262.574C189.837 262.165 191.681 263.189 192.979 262.574C193.184 262.438 193.403 262.287 193.607 262.124C194.974 260.757 197.31 256.659 199.154 256.659C201.463 256.768 205.343 250.046 206.546 248.53C208.039 246.544 209.635 244.637 211.327 242.819C211.903 242.104 212.585 241.482 213.349 240.974C214.511 240.36 215.877 240.687 216.929 239.731C217.162 239.475 217.423 239.246 217.708 239.048C218.184 238.856 218.697 238.772 219.21 238.802C221.142 238.447 222.911 237.491 224.265 236.07C226.369 234.225 228.473 232.395 230.55 230.523C233.023 228.31 236.903 233.255 239.308 234.321C240.073 234.649 240.906 234.826 241.671 235.154C243.201 235.958 244.586 237.011 245.77 238.269C249.406 241.408 253.315 244.215 257.451 246.658C258.148 245.879 259.446 246.467 260.47 246.248C260.973 246.101 261.438 245.85 261.837 245.51L269.119 240.168C269.421 239.879 269.821 239.714 270.239 239.704C272.479 239.909 274.051 238.037 275.868 236.971C276.178 236.733 276.556 236.6 276.947 236.589C277.453 236.589 277.821 237.067 278.177 237.436C279.828 239.24 282.063 240.401 284.489 240.715C285.329 240.705 286.157 240.927 286.879 241.357C287.315 241.801 287.675 242.313 287.945 242.873C288.66 243.882 289.548 244.756 290.568 245.456C293.768 247.799 297.088 249.974 300.514 251.972L305.61 255.074H305.692C307.277 256.03 308.876 257 310.529 257.806C311.198 258.216 311.854 258.558 312.469 258.845Z" fill="white"/>
<path d="M284.036 202.421C285.622 195.701 281.46 188.968 274.741 187.382C268.021 185.797 261.288 189.958 259.702 196.677C258.116 203.397 262.278 210.13 268.997 211.716C275.717 213.302 282.45 209.14 284.036 202.421Z" fill="white"/>
<path d="M297.263 196.449C297.261 196.132 297.185 195.82 297.042 195.537C296.899 195.254 296.692 195.009 296.438 194.819C296.183 194.63 295.889 194.502 295.577 194.446C295.265 194.39 294.944 194.407 294.64 194.495C294.654 194.286 294.654 194.076 294.64 193.867C294.64 192.726 294.186 191.631 293.379 190.824C292.572 190.017 291.477 189.563 290.336 189.563C290.066 189.565 289.796 189.588 289.53 189.632C289.102 188.937 288.461 188.4 287.703 188.101C286.944 187.801 286.109 187.756 285.322 187.972C284.536 188.187 283.84 188.652 283.34 189.296C282.84 189.94 282.562 190.729 282.549 191.544C282.074 191.515 281.598 191.582 281.15 191.744C280.702 191.905 280.292 192.156 279.945 192.482C279.599 192.808 279.322 193.201 279.133 193.638C278.944 194.075 278.847 194.546 278.847 195.021C278.847 195.497 278.944 195.968 279.133 196.405C279.322 196.842 279.599 197.235 279.945 197.561C280.292 197.887 280.702 198.138 281.15 198.299C281.598 198.46 282.074 198.528 282.549 198.499H295.295C295.827 198.484 296.331 198.261 296.7 197.878C297.068 197.494 297.27 196.981 297.263 196.449Z" fill="#20316E"/>
<path d="M265.443 210.098C265.443 209.558 265.229 209.04 264.847 208.658C264.465 208.277 263.948 208.062 263.408 208.062C263.208 208.066 263.011 208.098 262.82 208.158C262.834 207.948 262.834 207.739 262.82 207.529C262.817 206.385 262.361 205.289 261.552 204.48C260.743 203.672 259.647 203.216 258.503 203.212C258.237 203.211 257.971 203.239 257.711 203.294C257.29 202.591 256.651 202.044 255.891 201.738C255.13 201.431 254.291 201.382 253.5 201.597C252.709 201.812 252.01 202.28 251.51 202.929C251.01 203.578 250.736 204.373 250.729 205.193H250.661C249.741 205.193 248.858 205.559 248.207 206.209C247.556 206.86 247.191 207.743 247.191 208.663C247.191 209.584 247.556 210.466 248.207 211.117C248.858 211.768 249.741 212.133 250.661 212.133H263.408C263.675 212.133 263.94 212.081 264.187 211.978C264.434 211.876 264.658 211.726 264.847 211.537C265.036 211.348 265.186 211.124 265.288 210.877C265.391 210.63 265.443 210.365 265.443 210.098Z" fill="#20316E"/>
<path d="M312.114 221.328C312.114 220.788 311.899 220.27 311.517 219.889C311.136 219.507 310.618 219.292 310.078 219.292C309.879 219.292 309.681 219.319 309.49 219.374C309.505 219.17 309.505 218.964 309.49 218.76C309.492 218.193 309.382 217.632 309.167 217.108C308.951 216.585 308.635 216.109 308.235 215.708C307.835 215.307 307.36 214.988 306.837 214.771C306.314 214.554 305.753 214.442 305.187 214.442C304.921 214.442 304.655 214.469 304.394 214.524C303.97 213.824 303.33 213.282 302.57 212.978C301.81 212.674 300.972 212.625 300.182 212.84C299.392 213.054 298.693 213.52 298.191 214.166C297.689 214.813 297.411 215.605 297.399 216.423C296.479 216.423 295.596 216.789 294.946 217.44C294.295 218.091 293.929 218.973 293.929 219.894C293.929 220.814 294.295 221.697 294.946 222.347C295.596 222.998 296.479 223.364 297.399 223.364H310.133C310.663 223.35 311.167 223.129 311.537 222.749C311.907 222.368 312.114 221.859 312.114 221.328Z" fill="#20316E"/>
<path d="M151.651 226.301C151.651 226.14 151.619 225.98 151.557 225.831C151.495 225.681 151.405 225.546 151.291 225.432C151.176 225.318 151.041 225.227 150.892 225.165C150.743 225.103 150.583 225.072 150.421 225.072C150.303 225.057 150.184 225.057 150.066 225.072C150.073 224.949 150.073 224.826 150.066 224.703C150.068 224.359 150.001 224.019 149.871 223.702C149.74 223.385 149.548 223.096 149.306 222.853C149.063 222.611 148.775 222.419 148.457 222.288C148.14 222.158 147.8 222.091 147.456 222.093C147.297 222.08 147.137 222.08 146.978 222.093C146.719 221.674 146.331 221.35 145.872 221.17C145.413 220.99 144.908 220.963 144.433 221.094C143.957 221.224 143.537 221.506 143.235 221.895C142.933 222.285 142.765 222.762 142.757 223.254C142.199 223.254 141.663 223.476 141.269 223.871C140.874 224.265 140.653 224.8 140.653 225.358C140.653 225.916 140.874 226.452 141.269 226.846C141.663 227.241 142.199 227.462 142.757 227.462H150.462C150.769 227.45 151.06 227.324 151.279 227.11C151.498 226.895 151.631 226.607 151.651 226.301Z" fill="#20316E"/>
<path d="M214.306 197.365C214.308 197.202 214.277 197.041 214.216 196.89C214.155 196.739 214.065 196.602 213.95 196.486C213.836 196.371 213.7 196.279 213.55 196.216C213.4 196.154 213.239 196.121 213.076 196.121C212.958 196.108 212.839 196.108 212.721 196.121C212.734 195.999 212.734 195.875 212.721 195.752C212.723 195.41 212.657 195.071 212.527 194.755C212.398 194.438 212.207 194.151 211.965 193.908C211.724 193.666 211.437 193.473 211.122 193.342C210.806 193.211 210.467 193.143 210.125 193.143C209.966 193.129 209.806 193.129 209.647 193.143C209.442 192.809 209.154 192.533 208.812 192.342C208.47 192.151 208.085 192.05 207.693 192.05C207.096 192.05 206.524 192.285 206.099 192.705C205.675 193.124 205.432 193.694 205.425 194.291C204.867 194.291 204.332 194.512 203.938 194.907C203.543 195.301 203.321 195.837 203.321 196.395C203.321 196.953 203.543 197.488 203.938 197.882C204.332 198.277 204.867 198.499 205.425 198.499H213.131C213.432 198.489 213.72 198.368 213.937 198.158C214.154 197.949 214.286 197.666 214.306 197.365Z" fill="#20316E"/>
<path d="M309.777 245.674C308.411 245.947 309.996 253.749 310.624 256.686H310.42C309.231 253.954 305.979 247.027 304.613 248.694C303.711 249.787 304.613 252.642 305.597 255.074C306.253 256.672 306.963 258.08 307.305 258.694C306.526 257.574 303.698 253.803 302.536 255.962C302.311 256.554 302.225 257.19 302.287 257.821C302.349 258.451 302.556 259.059 302.892 259.596C301.833 260.133 300.831 260.773 299.9 261.509C297.177 263.384 293.981 264.454 290.678 264.596C290.697 265.308 290.459 266.002 290.007 266.552C289.556 267.102 288.92 267.47 288.218 267.588C287.587 267.57 286.957 267.644 286.347 267.807C285.947 268.022 285.59 268.309 285.295 268.654C282.822 271.031 279.106 271.55 275.731 271.387C274.63 271.23 273.507 271.371 272.479 271.796C271.961 272.114 271.499 272.516 271.113 272.985C270.225 272.206 268.203 273.859 267.78 274.215C268.217 273.723 270.785 270.813 269.706 270.02C268.627 269.228 265.703 273.258 265.375 273.723C265.553 273.245 267.206 268.886 266.113 268.763C265.02 268.64 263.749 273.368 263.749 273.368C263.749 273.368 264.159 269.037 263.189 269.16C262.738 269.16 262.588 270.457 262.574 271.769C262.574 270.963 262.397 270.403 262.192 270.403C261.987 270.403 261.741 271.673 261.727 273.012C261.577 272.848 261.44 272.794 261.317 273.012C260.99 271.496 260.539 269.87 260.088 269.966C259.405 270.102 260.197 274.064 260.525 275.431H260.416C259.815 274.064 258.189 270.594 257.506 271.428C256.823 272.261 257.765 274.16 258.38 275.526H258.066C257.506 274.939 256.809 274.447 256.44 275.13C256.378 275.269 256.337 275.416 256.317 275.567C255.757 275.567 255.21 275.567 254.65 275.567C251.75 275.849 248.822 275.566 246.029 274.734C245.713 274.591 245.377 274.499 245.032 274.461C244.703 274.463 244.376 274.513 244.062 274.611C243.42 274.775 242.778 274.898 242.136 275.007C243.037 273.791 243.98 272.275 243.188 271.632C242.136 270.867 239.69 273.914 238.679 275.253H238.461C238.993 273.887 240.155 270.321 239.116 270.184C238.078 270.048 236.794 274.051 236.493 275.144C236.575 274.119 236.78 270.526 235.837 270.649C235.66 270.649 235.537 270.854 235.441 271.127V270.99C234.772 269.228 233.829 267.397 234.266 265.525L223.336 260.58C223.002 260.289 222.609 260.075 222.183 259.952C221.757 259.83 221.31 259.802 220.872 259.871C220.435 259.94 220.018 260.104 219.65 260.352C219.283 260.599 218.974 260.924 218.746 261.304C218.746 261.973 217.38 263.353 216.232 264.501C216.232 261.154 216.027 257.875 215.344 257.67C214.292 257.451 214.374 263.339 214.47 266.263L214.306 266.468C213.787 263.421 212.434 256.454 211.136 256.713C209.456 257.055 212.229 268.818 212.229 268.818C212.229 268.818 207.666 257.697 205.972 259.76C204.278 261.823 208.171 268.859 208.704 269.952C208.144 269.132 205.015 264.774 203.799 267.069C203.021 268.517 203.895 270.444 204.783 271.81C203.312 270.552 201.765 269.384 200.152 268.313C199.485 267.823 198.754 267.428 197.979 267.138C196.613 266.687 195.179 266.782 193.881 266.372C192.583 265.963 191.244 264.692 191.585 263.326L188.757 263.189C188.757 263.012 188.634 262.848 188.58 262.67C188.306 261.919 188.061 261.14 187.787 260.375C187.287 260.375 186.788 260.426 186.298 260.525C185.765 250.757 185.26 239.95 185.11 231.739L188.32 227.859L192.323 226.848L192.897 225.304C194.375 225.304 195.813 224.824 196.996 223.938C197.324 223.295 195.766 223.555 195.848 223.104C195.93 222.653 195.22 222.339 194.482 222.284C193.915 222.249 193.353 222.162 192.801 222.025C192.801 221.861 192.801 221.67 192.924 221.396C193.143 220.782 193.034 220.372 192.351 219.853C191.667 219.333 190.984 219.429 189.536 219.593C188.088 219.757 188.266 219.101 186.94 218.473C184.686 217.916 182.323 217.992 180.109 218.691C179.604 219.047 177.609 218.842 177.049 219.702C176.489 220.563 173.223 220.358 173.647 221.069C174.07 221.779 174.603 221.861 174.521 223.118C174.439 224.375 175.587 223.965 176.735 224.484C177.377 224.757 177.609 224.58 177.828 224.375L178.347 224.73L180.505 225.167L183.771 228.282C183.593 234.266 183.292 246.234 183.156 257.916C181.321 259.535 179.688 261.37 178.292 263.38C178.565 262.684 181.352 255.388 179.535 255.183C178.497 255.06 177.445 257.273 176.694 259.282C175.505 249.814 173.032 229.116 171.557 210.795C171.644 210.732 171.718 210.653 171.775 210.562C171.912 210.289 171.775 210.152 171.502 210.07L171.338 207.994L175.997 201.518L182.104 199.523L182.842 197.064C184.864 197.064 188.621 195.315 189.003 194.455C189.386 193.594 187.05 194.004 187.118 193.293C187.186 192.583 186.066 192.159 184.864 192.159C183.98 192.155 183.098 192.078 182.227 191.927C182.322 191.667 182.227 191.367 182.35 190.93C182.637 189.96 182.35 189.345 181.311 188.593C180.273 187.842 179.153 188.074 176.885 188.498C174.617 188.921 174.863 187.856 172.786 187.009C170.71 186.162 163.496 187.009 162.225 188.074C161.474 188.675 158.332 188.566 157.566 189.973C156.801 191.381 151.664 191.34 152.429 192.514C153.195 193.689 153.987 193.648 153.987 195.616C153.987 197.583 155.722 196.818 157.566 197.447C158.605 197.788 158.933 197.447 159.261 197.16L160.108 197.665L163.523 198.102L168.851 202.556C168.851 204.305 168.961 206.354 169.043 208.663H168.851C168.189 208.606 167.532 208.501 166.884 208.349C166.966 208.158 166.884 207.925 167.034 207.611C167.294 206.901 167.157 206.423 166.365 205.808C165.573 205.193 164.794 205.302 163.072 205.507C161.351 205.712 161.583 204.933 160.039 204.141C158.496 203.349 153.085 203.704 152.088 204.387C151.487 204.81 149.151 204.565 148.508 205.576C147.866 206.587 144.027 206.341 144.533 207.215C145.038 208.089 145.639 208.144 145.544 209.62C145.448 211.095 146.787 210.603 148.126 211.163C148.877 211.478 149.151 211.286 149.41 211.04L150.025 211.464L152.539 211.969L156.351 215.604C156.2 220.85 155.968 230.004 155.79 240.004H155.517C155.517 239.84 155.517 239.649 155.64 239.362C155.859 238.761 155.749 238.351 155.066 237.818C154.383 237.286 153.7 237.395 152.252 237.573C150.804 237.75 150.981 237.081 149.656 236.439C147.401 235.889 145.04 235.964 142.825 236.657C142.319 237.012 140.325 236.807 139.765 237.682C139.437 238.201 138.166 238.324 137.264 238.502V241.521C137.428 242.313 138.426 242.04 139.437 242.45C140.092 242.723 140.325 242.559 140.543 242.354L141.063 242.709L143.221 243.133L146.486 246.262C146.322 251.727 146.049 262.397 145.899 273.19C144.418 273.698 143.056 274.502 141.896 275.554C142.565 274.802 146.924 269.87 145.12 268.572C143.317 267.274 138.18 274.351 137.893 274.761C138.029 274.392 141.049 266.714 139.163 266.482C138.508 266.413 137.797 267.261 137.264 268.422V278.832H312.469V252.874C311.813 249.582 310.788 245.483 309.777 245.674ZM176.243 198.458L176.653 197.61C177.426 197.251 178.225 196.949 179.044 196.709C180.259 196.477 180.314 196.162 181.653 197.064L180.738 199.086L176.243 200.22V198.458ZM159.848 197.46L159.206 197.105C159.399 196.892 159.659 196.752 159.944 196.709C160.481 196.685 160.996 196.484 161.406 196.135L162.594 197.406L159.848 197.46ZM161.938 195.807C162.908 195.288 163.004 195.684 164.138 196.313L164.439 198.02L161.938 195.807ZM164.985 198.389L164.603 196.545L164.944 196.709C166.037 197.173 166.31 196.504 166.666 195.807C166.884 196.244 166.666 196.914 167.157 197.638C167.319 197.814 167.519 197.953 167.741 198.042C167.963 198.132 168.202 198.171 168.442 198.157C168.442 198.854 168.442 199.796 168.442 200.889L164.985 198.389ZM140.83 242.641L140.434 242.382C140.565 242.251 140.741 242.173 140.926 242.163C141.271 242.167 141.607 242.057 141.882 241.849L142.593 242.723L140.83 242.641ZM142.196 241.671C142.839 241.371 142.88 241.671 143.563 242.095L143.672 243.188L142.196 241.671ZM146.213 245.264L144.041 243.447L143.863 242.259L144.082 242.382C144.765 242.723 145.011 242.382 145.216 241.876C145.352 242.163 145.216 242.573 145.462 243.065C145.571 243.283 145.885 243.393 146.268 243.447C146.295 243.898 146.281 244.554 146.254 245.264H146.213ZM151.241 243.98L151.528 243.461C152.041 243.268 152.566 243.109 153.099 242.983C153.891 242.887 153.946 242.696 154.752 243.324L154.083 244.568L151.159 245.114L151.241 243.98ZM147.538 243.98C148.194 244.8 148.59 243.789 149.506 243.884C149.967 243.909 150.43 243.854 150.872 243.721L150.544 245.36L147.552 247.751C147.552 246.385 147.552 245.1 147.552 243.939L147.538 243.98ZM150.927 278.709C150.295 277.831 149.541 277.049 148.686 276.387C148.604 274.87 148.536 273.34 148.454 271.81C149.063 274.231 149.981 276.564 151.186 278.75L150.927 278.709ZM155.326 268.476C154.875 267.11 154.37 266.14 153.878 266.236C152.634 266.482 153.878 273.067 154.547 276.414L154.26 276.687C152.894 273.668 149.998 267.725 148.713 269.283C148.517 269.545 148.398 269.857 148.372 270.184C148.017 262.984 147.73 255.771 147.62 249.896L150.831 246.016L154.82 245.005L155.408 243.447C155.312 252.095 155.244 261.058 155.326 268.504V268.476ZM149.765 211.368L149.301 211.081C149.453 210.927 149.658 210.834 149.875 210.822C150.28 210.833 150.676 210.703 150.995 210.453L151.815 211.478L149.765 211.368ZM151.418 210.248C152.17 209.893 152.211 210.248 153.031 210.726L153.167 212.092L151.418 210.248ZM156.105 214.442L153.563 212.325L153.372 210.958L153.618 211.095C154.411 211.491 154.697 211.013 154.984 210.508C155.135 210.849 154.984 211.327 155.258 211.874C155.379 212.009 155.526 212.118 155.69 212.196C155.855 212.273 156.033 212.317 156.214 212.325C156.159 212.871 156.132 213.595 156.105 214.497V214.442ZM173.51 198.43C174.207 198.41 174.896 198.272 175.546 198.02V198.143L175.204 200.725L170.873 204.824C170.723 202.761 170.6 200.725 170.491 198.826C171.584 199.988 172.144 198.362 173.51 198.43ZM161.938 212.98L162.28 212.366C162.879 212.131 163.496 211.944 164.124 211.806C165.04 211.696 165.094 211.464 166.051 212.202L165.258 213.664L161.843 214.292L161.938 212.98ZM157.621 212.98C158.373 213.937 158.837 212.748 159.916 212.871C160.443 212.892 160.97 212.823 161.474 212.666V212.748L161.091 214.661L157.676 217.393C157.648 215.781 157.648 214.292 157.662 212.926L157.621 212.98ZM160.258 271.223C160.267 271.201 160.281 271.182 160.299 271.168L160.258 271.223ZM163.947 269.146C163.953 269.091 163.953 269.036 163.947 268.982L164.097 269.16L163.947 269.146ZM167.048 272.561L167.198 272.384H167.335L167.048 272.561ZM170.218 264.364C170.218 264.364 165.655 253.243 163.947 255.306C163.814 255.481 163.716 255.681 163.66 255.894C163.58 256.345 163.58 256.808 163.66 257.26V257.56C163.706 257.882 163.77 258.202 163.851 258.517C164.13 259.573 164.481 260.61 164.903 261.618C164.903 261.727 164.999 261.85 165.053 261.973L165.477 262.93C165.48 262.952 165.48 262.975 165.477 262.998L165.736 263.531C166.174 264.473 166.57 265.211 166.72 265.512C166.176 264.717 165.568 263.968 164.903 263.271L164.657 263.025C163.619 262.042 162.458 261.427 161.815 262.629C161.592 263.18 161.5 263.775 161.545 264.367C161.59 264.96 161.771 265.534 162.075 266.045C161.593 267.123 161.182 268.232 160.845 269.365H160.449C160.531 267.493 160.449 264.678 159.752 264.146C159.37 257.642 158.946 250.087 158.577 242.573C158.93 242.442 159.245 242.227 159.493 241.944C159.739 241.466 158.905 241.494 158.523 241.343C158.154 233.651 157.867 226.069 157.744 219.784L161.488 215.235L166.174 214.06L166.843 212.27C167.544 212.267 168.239 212.157 168.906 211.942C169.425 226.329 170.409 247.464 172.062 260.73C171.434 257.355 170.245 251.973 169.097 252.205C167.39 252.669 170.163 264.446 170.163 264.446L170.218 264.364ZM188.539 225.96L188.839 225.427C189.345 225.23 189.866 225.075 190.397 224.962C191.189 224.867 191.244 224.662 192.05 225.29L191.38 226.547L188.457 227.08L188.539 225.96ZM186.817 225.809C187.279 225.842 187.743 225.787 188.184 225.645V225.714L187.869 227.353L184.946 229.73C184.946 228.364 184.946 227.08 184.946 225.905C185.547 226.793 185.943 225.714 186.872 225.809H186.817ZM178.087 224.607L177.691 224.347C177.824 224.218 177.998 224.141 178.183 224.129C178.53 224.135 178.87 224.03 179.153 223.828L179.85 224.689L178.087 224.607ZM179.453 223.637C180.096 223.35 180.136 223.637 180.82 224.061L180.929 225.167L179.453 223.637ZM181.284 225.427L181.12 224.225L181.339 224.347C182.008 224.689 182.254 224.279 182.473 223.842C182.596 224.129 182.473 224.552 182.705 225.031C182.8 225.153 182.922 225.252 183.062 225.319C183.202 225.385 183.356 225.417 183.511 225.413C183.511 225.864 183.511 226.479 183.511 227.23L181.284 225.427ZM262.397 274.911C262.397 274.747 262.397 274.597 262.397 274.433C262.397 274.802 262.397 275.034 262.397 275.034V274.911Z" fill="#20316E"/>
<g opacity="0.8">
<path opacity="0.8" d="M297.263 196.449C297.261 196.132 297.185 195.82 297.042 195.537C296.899 195.254 296.692 195.009 296.438 194.819C296.183 194.63 295.889 194.502 295.577 194.446C295.265 194.39 294.944 194.407 294.64 194.495C294.654 194.286 294.654 194.076 294.64 193.867C294.64 192.726 294.186 191.631 293.379 190.824C292.572 190.017 291.477 189.563 290.336 189.563C290.066 189.565 289.796 189.588 289.53 189.632C289.102 188.937 288.461 188.4 287.703 188.101C286.944 187.801 286.109 187.756 285.322 187.972C284.536 188.187 283.84 188.652 283.34 189.296C282.84 189.94 282.562 190.729 282.549 191.544C282.074 191.515 281.598 191.582 281.15 191.744C280.702 191.905 280.292 192.156 279.945 192.482C279.599 192.808 279.322 193.201 279.133 193.638C278.944 194.075 278.847 194.546 278.847 195.021C278.847 195.497 278.944 195.968 279.133 196.405C279.322 196.842 279.599 197.235 279.945 197.561C280.292 197.887 280.702 198.138 281.15 198.299C281.598 198.46 282.074 198.528 282.549 198.499H295.295C295.827 198.484 296.331 198.261 296.7 197.878C297.068 197.494 297.27 196.981 297.263 196.449Z" fill="white"/>
<path opacity="0.8" d="M265.443 210.098C265.443 209.558 265.229 209.04 264.847 208.658C264.465 208.277 263.948 208.062 263.408 208.062C263.208 208.066 263.011 208.098 262.82 208.158C262.834 207.948 262.834 207.739 262.82 207.529C262.817 206.385 262.361 205.289 261.552 204.48C260.743 203.672 259.647 203.216 258.503 203.212C258.237 203.211 257.971 203.239 257.711 203.294C257.29 202.591 256.651 202.044 255.891 201.738C255.13 201.431 254.291 201.382 253.5 201.597C252.709 201.812 252.01 202.28 251.51 202.929C251.01 203.578 250.736 204.373 250.729 205.193H250.661C249.741 205.193 248.858 205.559 248.207 206.209C247.556 206.86 247.191 207.743 247.191 208.663C247.191 209.584 247.556 210.466 248.207 211.117C248.858 211.768 249.741 212.133 250.661 212.133H263.408C263.675 212.133 263.94 212.081 264.187 211.978C264.434 211.876 264.658 211.726 264.847 211.537C265.036 211.348 265.186 211.124 265.288 210.877C265.391 210.63 265.443 210.365 265.443 210.098Z" fill="white"/>
<path opacity="0.8" d="M312.114 221.328C312.114 220.788 311.899 220.27 311.517 219.889C311.136 219.507 310.618 219.292 310.078 219.292C309.879 219.292 309.681 219.32 309.49 219.374C309.505 219.17 309.505 218.964 309.49 218.76C309.492 218.193 309.382 217.632 309.167 217.108C308.951 216.585 308.635 216.109 308.235 215.708C307.835 215.307 307.36 214.988 306.837 214.771C306.314 214.554 305.753 214.442 305.187 214.442C304.921 214.442 304.655 214.469 304.394 214.524C303.97 213.824 303.33 213.282 302.57 212.978C301.81 212.674 300.972 212.625 300.182 212.84C299.392 213.054 298.693 213.52 298.191 214.166C297.689 214.813 297.411 215.605 297.399 216.423C296.479 216.423 295.596 216.789 294.946 217.44C294.295 218.091 293.929 218.973 293.929 219.894C293.929 220.814 294.295 221.697 294.946 222.347C295.596 222.998 296.479 223.364 297.399 223.364H310.133C310.663 223.35 311.167 223.129 311.537 222.749C311.907 222.368 312.114 221.859 312.114 221.328Z" fill="white"/>
<path opacity="0.8" d="M151.651 226.301C151.651 226.14 151.619 225.98 151.557 225.831C151.495 225.681 151.405 225.546 151.291 225.432C151.176 225.318 151.041 225.227 150.892 225.165C150.743 225.103 150.583 225.072 150.421 225.072C150.303 225.057 150.184 225.057 150.066 225.072C150.073 224.949 150.073 224.826 150.066 224.703C150.068 224.359 150.001 224.019 149.871 223.702C149.74 223.385 149.548 223.096 149.306 222.853C149.063 222.611 148.775 222.419 148.457 222.288C148.14 222.158 147.8 222.091 147.456 222.093C147.297 222.08 147.137 222.08 146.978 222.093C146.719 221.674 146.331 221.35 145.872 221.17C145.413 220.99 144.908 220.963 144.433 221.094C143.957 221.224 143.537 221.506 143.235 221.895C142.933 222.285 142.765 222.762 142.757 223.254C142.199 223.254 141.663 223.476 141.269 223.871C140.874 224.265 140.653 224.8 140.653 225.358C140.653 225.916 140.874 226.452 141.269 226.846C141.663 227.241 142.199 227.462 142.757 227.462H150.462C150.769 227.45 151.06 227.324 151.279 227.11C151.498 226.895 151.631 226.607 151.651 226.301Z" fill="white"/>
<path opacity="0.8" d="M214.306 197.365C214.308 197.202 214.277 197.041 214.216 196.89C214.155 196.739 214.065 196.602 213.95 196.486C213.836 196.371 213.7 196.279 213.55 196.216C213.4 196.154 213.239 196.121 213.076 196.121C212.958 196.108 212.839 196.108 212.721 196.121C212.734 195.999 212.734 195.875 212.721 195.752C212.723 195.41 212.657 195.071 212.527 194.755C212.398 194.438 212.207 194.151 211.965 193.908C211.724 193.666 211.437 193.473 211.122 193.342C210.806 193.211 210.467 193.143 210.125 193.143C209.966 193.129 209.806 193.129 209.647 193.143C209.442 192.809 209.154 192.533 208.812 192.342C208.47 192.151 208.085 192.05 207.693 192.05C207.096 192.05 206.524 192.285 206.099 192.705C205.675 193.124 205.432 193.694 205.425 194.291C204.867 194.291 204.332 194.512 203.938 194.907C203.543 195.301 203.321 195.837 203.321 196.395C203.321 196.953 203.543 197.488 203.938 197.882C204.332 198.277 204.867 198.499 205.425 198.499H213.131C213.432 198.489 213.72 198.368 213.937 198.158C214.154 197.949 214.286 197.666 214.306 197.365Z" fill="white"/>
</g>
<path d="M320.092 299.681H130.789C128.125 299.681 125.966 301.84 125.966 304.504V389.619C125.966 392.283 128.125 394.442 130.789 394.442H320.092C322.756 394.442 324.915 392.283 324.915 389.619V304.504C324.915 301.84 322.756 299.681 320.092 299.681Z" fill="#20316E"/>
<path opacity="0.5" d="M320.092 299.681H130.789C128.125 299.681 125.966 301.84 125.966 304.504V389.619C125.966 392.283 128.125 394.442 130.789 394.442H320.092C322.756 394.442 324.915 392.283 324.915 389.619V304.504C324.915 301.84 322.756 299.681 320.092 299.681Z" fill="white"/>
<path opacity="0.4" d="M162.84 322.06C162.84 324.792 162.03 327.462 160.512 329.734C158.995 332.005 156.837 333.775 154.313 334.821C151.79 335.866 149.012 336.14 146.333 335.607C143.654 335.074 141.192 333.758 139.261 331.827C137.329 329.895 136.013 327.434 135.48 324.754C134.948 322.075 135.221 319.298 136.267 316.774C137.312 314.25 139.082 312.093 141.354 310.575C143.625 309.057 146.296 308.247 149.028 308.247C150.842 308.245 152.639 308.601 154.316 309.295C155.992 309.988 157.516 311.006 158.799 312.289C160.082 313.572 161.099 315.095 161.792 316.772C162.486 318.448 162.842 320.245 162.84 322.06Z" fill="black"/>
<path opacity="0.8" d="M159.479 331.104C158.184 332.605 156.58 333.808 154.778 334.633C152.976 335.458 151.017 335.885 149.034 335.885C147.052 335.885 145.093 335.458 143.291 334.633C141.488 333.808 139.885 332.605 138.59 331.104C139.092 329.312 140.048 327.68 141.364 326.364C142.68 325.048 144.312 324.093 146.104 323.59C145.143 322.959 144.41 322.035 144.016 320.955C143.622 319.875 143.587 318.696 143.916 317.594C144.245 316.493 144.921 315.526 145.843 314.84C146.765 314.153 147.885 313.782 149.034 313.782C150.184 313.782 151.303 314.153 152.226 314.84C153.148 315.526 153.824 316.493 154.153 317.594C154.482 318.696 154.447 319.875 154.053 320.955C153.659 322.035 152.926 322.959 151.965 323.59C153.753 324.1 155.382 325.057 156.697 326.372C158.012 327.687 158.969 329.316 159.479 331.104Z" fill="white"/>
<path opacity="0.4" d="M224.238 310.269H172.199V315.679H224.238V310.269Z" fill="white"/>
<path opacity="0.4" d="M312.482 324.901H172.199V328.863H312.482V324.901Z" fill="white"/>
<path opacity="0.4" d="M312.482 332.183H172.199V336.145H312.482V332.183Z" fill="white"/>
<path opacity="0.4" d="M312.482 339.452H172.199V343.414H312.482V339.452Z" fill="white"/>
<path opacity="0.4" d="M312.482 346.734H172.199V350.696H312.482V346.734Z" fill="white"/>
<path opacity="0.4" d="M312.482 354.002H172.199V357.964H312.482V354.002Z" fill="white"/>
<path opacity="0.4" d="M312.482 361.284H172.199V365.246H312.482V361.284Z" fill="white"/>
<path opacity="0.4" d="M312.482 368.552H172.199V372.514H312.482V368.552Z" fill="white"/>
<path opacity="0.4" d="M257.834 375.834H172.199V379.796H257.834V375.834Z" fill="white"/>
<path d="M320.092 400.781H130.789C128.125 400.781 125.966 402.941 125.966 405.604V442.725C125.966 445.388 128.125 447.547 130.789 447.547H320.092C322.756 447.547 324.915 445.388 324.915 442.725V405.604C324.915 402.941 322.756 400.781 320.092 400.781Z" fill="#20316E"/>
<path opacity="0.5" d="M320.092 400.781H130.789C128.125 400.781 125.966 402.941 125.966 405.604V442.725C125.966 445.388 128.125 447.547 130.789 447.547H320.092C322.756 447.547 324.915 445.388 324.915 442.725V405.604C324.915 402.941 322.756 400.781 320.092 400.781Z" fill="white"/>
<path opacity="0.4" d="M162.84 423.16C162.84 425.892 162.03 428.563 160.512 430.834C158.995 433.105 156.837 434.876 154.313 435.921C151.79 436.967 149.012 437.24 146.333 436.707C143.654 436.174 141.192 434.859 139.261 432.927C137.329 430.995 136.013 428.534 135.48 425.855C134.948 423.176 135.221 420.398 136.267 417.874C137.312 415.351 139.082 413.193 141.354 411.676C143.625 410.158 146.296 409.348 149.028 409.348C150.842 409.346 152.639 409.702 154.316 410.395C155.992 411.089 157.516 412.106 158.799 413.389C160.082 414.672 161.099 416.196 161.792 417.872C162.486 419.549 162.842 421.346 162.84 423.16Z" fill="black"/>
<path opacity="0.8" d="M159.479 432.205C158.184 433.705 156.58 434.909 154.778 435.734C152.976 436.559 151.017 436.986 149.034 436.986C147.052 436.986 145.093 436.559 143.291 435.734C141.488 434.909 139.885 433.705 138.59 432.205C139.092 430.413 140.048 428.78 141.364 427.464C142.68 426.148 144.312 425.193 146.104 424.69C145.143 424.06 144.41 423.135 144.016 422.055C143.622 420.975 143.587 419.797 143.916 418.695C144.245 417.593 144.921 416.627 145.843 415.94C146.765 415.253 147.885 414.882 149.034 414.882C150.184 414.882 151.303 415.253 152.226 415.94C153.148 416.627 153.824 417.593 154.153 418.695C154.482 419.797 154.447 420.975 154.053 422.055C153.659 423.135 152.926 424.06 151.965 424.69C153.753 425.2 155.382 426.158 156.697 427.473C158.012 428.788 158.969 430.416 159.479 432.205Z" fill="white"/>
<path opacity="0.4" d="M224.238 411.37H172.199V416.78H224.238V411.37Z" fill="white"/>
<path opacity="0.4" d="M312.482 426.002H172.199V429.964H312.482V426.002Z" fill="white"/>
<path opacity="0.4" d="M312.482 433.216H172.199V437.178H312.482V433.216Z" fill="white"/>
<path opacity="0.3" d="M338.837 82.1373H334.643V455.581H338.837V82.1373Z" fill="black"/>
<path d="M337.963 194.222H335.517C334.71 194.222 334.055 194.877 334.055 195.684V208.363C334.055 209.17 334.71 209.825 335.517 209.825H337.963C338.77 209.825 339.424 209.17 339.424 208.363V195.684C339.424 194.877 338.77 194.222 337.963 194.222Z" fill="white"/>
<path d="M564.947 469.284H334.752V493.521H564.947V469.284Z" fill="#20316E"/>
<path opacity="0.4" d="M564.947 469.284H334.752V493.521H564.947V469.284Z" fill="white"/>
<path opacity="0.2" d="M474.735 469.284H334.752V493.521H474.735V469.284Z" fill="white"/>
<path d="M455.649 469.284H225.454V493.521H455.649V469.284Z" fill="#20316E"/>
<path opacity="0.4" d="M455.649 469.284H225.454V493.521H455.649V469.284Z" fill="white"/>
<path opacity="0.2" d="M365.437 469.284H225.454V493.521H365.437V469.284Z" fill="white"/>
<path d="M419.991 410.796H573.718L597.149 289.803C597.751 286.701 597.66 283.504 596.882 280.441C596.103 277.378 594.656 274.525 592.645 272.087C590.634 269.649 588.109 267.686 585.25 266.339C582.391 264.992 579.269 264.294 576.109 264.296H466.032C461.055 264.297 456.233 266.031 452.394 269.199C448.555 272.368 445.938 276.773 444.992 281.661L419.991 410.796Z" fill="#20316E"/>
<path d="M530.095 410.796H573.745L597.176 289.803C597.779 286.701 597.687 283.504 596.909 280.441C596.13 277.378 594.684 274.525 592.673 272.087C590.662 269.649 588.136 267.686 585.277 266.339C582.418 264.992 579.297 264.294 576.136 264.296C571.159 264.297 566.337 266.031 562.498 269.199C558.659 272.368 556.042 276.773 555.096 281.661L530.095 410.796Z" fill="#20316E"/>
<g opacity="0.6">
<path opacity="0.6" d="M597.149 289.803L573.718 410.796H419.991L444.992 281.661C445.938 276.773 448.555 272.368 452.394 269.199C456.233 266.031 461.055 264.297 466.032 264.296H576.109C579.269 264.294 582.391 264.992 585.25 266.339C588.109 267.686 590.634 269.649 592.645 272.087C594.656 274.525 596.103 277.378 596.882 280.441C597.66 283.504 597.751 286.701 597.149 289.803Z" fill="white"/>
</g>
<g opacity="0.6">
<path opacity="0.6" d="M562.993 289.803L539.562 410.796H419.991L444.992 281.661C445.938 276.773 448.555 272.368 452.394 269.199C456.233 266.031 461.055 264.297 466.032 264.296H541.953C545.114 264.294 548.235 264.992 551.094 266.339C553.953 267.686 556.479 269.649 558.49 272.087C560.501 274.525 561.947 277.378 562.726 280.441C563.505 283.504 563.596 286.701 562.993 289.803Z" fill="white"/>
</g>
<path d="M568.745 409.307H329.096C323.127 409.307 318.289 414.145 318.289 420.114V462.248C318.289 468.216 323.127 473.055 329.096 473.055H568.745C574.713 473.055 579.552 468.216 579.552 462.248V420.114C579.552 414.145 574.713 409.307 568.745 409.307Z" fill="#20316E"/>
<path opacity="0.6" d="M468.737 409.307H329.096C323.127 409.307 318.289 414.145 318.289 420.114V462.248C318.289 468.216 323.127 473.055 329.096 473.055H468.737C474.706 473.055 479.544 468.216 479.544 462.248V420.114C479.544 414.145 474.706 409.307 468.737 409.307Z" fill="white"/>
<path opacity="0.6" d="M568.745 409.307H329.096C323.127 409.307 318.289 414.145 318.289 420.114V462.248C318.289 468.216 323.127 473.055 329.096 473.055H568.745C574.713 473.055 579.552 468.216 579.552 462.248V420.114C579.552 414.145 574.713 409.307 568.745 409.307Z" fill="white"/>
<path d="M463.737 409.307H224.088C218.119 409.307 213.281 414.145 213.281 420.114V462.248C213.281 468.216 218.119 473.055 224.088 473.055H463.737C469.705 473.055 474.544 468.216 474.544 462.248V420.114C474.544 414.145 469.705 409.307 463.737 409.307Z" fill="#20316E"/>
<path opacity="0.6" d="M363.73 409.307H224.088C218.119 409.307 213.281 414.145 213.281 420.114V462.248C213.281 468.216 218.119 473.055 224.088 473.055H363.73C369.698 473.055 374.536 468.216 374.536 462.248V420.114C374.536 414.145 369.698 409.307 363.73 409.307Z" fill="white"/>
<path opacity="0.6" d="M463.737 409.307H224.088C218.119 409.307 213.281 414.145 213.281 420.114V462.248C213.281 468.216 218.119 473.055 224.088 473.055H463.737C469.705 473.055 474.544 468.216 474.544 462.248V420.114C474.544 414.145 469.705 409.307 463.737 409.307Z" fill="white"/>
<path d="M247.04 407.517L248.379 397.776L271.537 396.451L270.184 406.178L247.04 407.517Z" fill="#B97964"/>
<path opacity="0.2" d="M270.184 406.178L271.523 396.451L258.298 397.202L257.424 406.916L270.184 406.178Z" fill="black"/>
<path d="M248.912 397.844L248.407 397.339C249.691 397.036 250.885 396.432 251.891 395.576C252.055 395.136 252.055 394.651 251.891 394.21C251.851 393.993 251.75 393.791 251.6 393.629C251.45 393.467 251.257 393.351 251.043 393.295C250.201 393.348 249.406 393.702 248.803 394.292C249.238 393.451 249.368 392.486 249.172 391.56C249.101 391.428 249 391.316 248.876 391.232C248.752 391.149 248.61 391.097 248.461 391.081C248.238 391.021 248.002 391.026 247.781 391.096C247.561 391.166 247.365 391.299 247.218 391.478C246.894 392.049 246.788 392.719 246.917 393.363C247.029 394.224 247.23 395.071 247.519 395.89C247.519 395.89 247.519 395.89 247.519 395.972C247.519 396.054 247.519 395.972 247.587 395.972C247.655 395.972 247.683 396.369 247.724 396.382C247.765 396.396 248.311 397.27 248.311 397.27L248.912 397.844ZM250.948 393.65C251.084 393.65 251.248 393.718 251.317 394.046V394.155C251.325 394.246 251.314 394.338 251.286 394.425C251.258 394.511 251.212 394.592 251.153 394.661C250.661 395.303 249.117 395.535 248.188 395.604C248.188 395.535 248.188 395.481 248.297 395.399C248.946 394.52 249.885 393.9 250.948 393.65ZM247.628 391.764C247.731 391.659 247.858 391.581 247.999 391.538C248.14 391.495 248.29 391.488 248.434 391.519C248.506 391.526 248.574 391.551 248.634 391.592C248.694 391.632 248.742 391.687 248.776 391.751C249.09 392.366 248.434 394.073 247.833 395.276C247.286 393.568 247.286 392.27 247.628 391.764Z" fill="#20316E"/>
<path d="M248.994 396.669L250.114 407.599C250.138 407.781 250.09 407.966 249.981 408.114C249.871 408.262 249.708 408.361 249.527 408.391L240.892 409.758C240.438 409.804 239.984 409.669 239.629 409.382C239.273 409.096 239.045 408.681 238.993 408.227C238.665 404.388 238.706 402.544 238.256 397.721C237.637 393.445 237.331 389.13 237.34 384.81C237.573 380.712 241.644 381.04 241.903 382.802C242.95 387.336 245.147 391.524 248.284 394.961C248.712 395.431 248.963 396.035 248.994 396.669Z" fill="#263238"/>
<path d="M453.682 292.809C453.682 292.809 447.684 292.7 447.479 293.752C447.274 294.804 447.657 303.575 448.449 304.818C449.331 305.928 450.335 306.937 451.441 307.824L447.028 320.885L454.419 324.642L457.685 310.392C457.685 310.392 461.36 306.813 460.294 302.195C459.228 297.577 453.682 292.809 453.682 292.809Z" fill="#B97964"/>
<path opacity="0.2" d="M453.682 292.809C453.682 292.809 447.684 292.7 447.479 293.752C447.274 294.804 447.657 303.575 448.449 304.818C449.331 305.928 450.335 306.937 451.441 307.824L447.028 320.885L454.419 324.642L457.685 310.392C457.685 310.392 461.36 306.813 460.294 302.195C459.228 297.577 453.682 292.809 453.682 292.809Z" fill="black"/>
<path d="M474.161 298.957C468.164 301.525 461.674 321.609 458.983 324.136C456.291 326.664 457.357 317.838 457.357 317.838L447.028 315.037C447.028 315.037 442.929 326.937 447.028 336.897C451.127 346.857 463.669 342.895 472.986 330.353C482.304 317.811 474.161 298.957 474.161 298.957Z" fill="#20316E"/>
<path opacity="0.2" d="M447.028 336.938C447.747 338.914 449.141 340.574 450.963 341.624C456.633 344.684 465.786 340.108 473.027 330.394C475.212 327.371 476.62 323.856 477.126 320.161C478.738 309.572 474.12 298.957 474.12 298.957C468.123 301.525 461.633 321.609 458.928 324.136C456.223 326.664 457.316 317.838 457.316 317.838L446.987 315.037C446.987 315.037 442.916 326.937 447.028 336.938Z" fill="white"/>
<path opacity="0.2" d="M450.963 341.624C456.633 344.684 465.786 340.108 473.027 330.394C475.212 327.371 476.62 323.856 477.126 320.161C476.006 317.811 475.145 316.39 475.145 316.39C475.145 316.39 463.15 338.236 450.963 341.624Z" fill="black"/>
<path d="M444.924 370.246C452.736 362.433 458.75 353.01 462.548 342.635C468.355 326.022 474.161 298.916 474.161 298.916C474.161 298.916 501.978 292.809 528.879 301.566C555.779 310.324 521.515 382.693 496.772 390.781L444.924 370.246Z" fill="#20316E"/>
<path d="M463.86 300.46C463.867 300.592 463.845 300.724 463.795 300.847C463.746 300.969 463.671 301.08 463.575 301.171C463.479 301.262 463.364 301.331 463.239 301.373C463.113 301.415 462.98 301.43 462.849 301.416L452.657 300.624C452.375 300.598 452.111 300.473 451.913 300.27C451.715 300.067 451.596 299.8 451.578 299.517L450.854 279.201C450.844 279.062 450.863 278.923 450.91 278.791C450.956 278.66 451.029 278.539 451.124 278.437C451.218 278.335 451.333 278.253 451.46 278.196C451.588 278.14 451.725 278.11 451.865 278.108L462.057 278.901C462.347 278.966 462.608 279.124 462.8 279.35C462.993 279.577 463.106 279.861 463.122 280.158L463.86 300.46Z" fill="#263238"/>
<path opacity="0.5" d="M462.016 279.939L462.753 300.432C462.771 300.554 462.761 300.678 462.723 300.794C462.685 300.911 462.62 301.017 462.534 301.105C462.448 301.192 462.343 301.258 462.227 301.298C462.111 301.338 461.987 301.35 461.865 301.334L453.217 300.665C452.643 300.665 451.605 300.214 451.578 299.64L450.854 279.078C450.854 278.491 451.865 278.108 452.438 278.163L461.087 278.832C461.353 278.863 461.598 278.995 461.771 279.201C461.944 279.407 462.031 279.671 462.016 279.939Z" fill="white"/>
<path d="M477.905 314.6L470.336 306.854C470.336 306.854 469.079 294.708 468.464 293.41C467.849 292.112 457.985 292.604 456.92 292.522C455.854 292.44 456.045 304.558 457.084 305.829C458.122 307.1 462.139 308.124 462.139 308.124L470.24 319.177L477.905 314.6Z" fill="#B97964"/>
<path opacity="0.2" d="M477.509 328.822C477.509 328.822 485.351 347.471 498.507 348.278C511.664 349.084 531.543 332.211 534.029 320.106C536.516 308.001 518.577 319.177 518.577 319.177C518.577 319.177 495.543 332.525 495.092 332.566C494.641 332.607 477.509 328.822 477.509 328.822Z" fill="black"/>
<path d="M529.234 304.517C523.687 304.285 506.172 324.71 498.507 327.142C490.843 329.574 474.954 309.6 474.954 309.6L466.756 316.499C466.756 316.499 479.052 335.831 492.223 340.162C505.393 344.493 528.414 329.383 532.745 322.62C537.076 315.857 535.997 304.804 529.234 304.517Z" fill="#20316E"/>
<path opacity="0.2" d="M529.234 304.517C523.687 304.285 506.172 324.71 498.507 327.142C490.843 329.574 474.954 309.6 474.954 309.6L466.756 316.499C466.756 316.499 479.052 335.831 492.223 340.162C505.393 344.493 528.414 329.383 532.745 322.62C537.076 315.857 535.997 304.804 529.234 304.517Z" fill="white"/>
<path d="M495.092 294.653C495.092 294.653 507.606 290.254 519.069 293.287C519.547 293.731 519.875 294.313 520.007 294.952C520.139 295.591 520.069 296.256 519.807 296.853C511.492 295.015 502.804 295.976 495.092 299.585V294.653Z" fill="black"/>
<path d="M493.206 298.629C493.206 302.086 491.034 304.886 488.356 304.886C485.679 304.886 483.52 302.086 483.52 298.629C483.52 295.172 485.692 292.358 488.356 292.358C491.021 292.358 493.206 295.172 493.206 298.629Z" fill="#263238"/>
<path opacity="0.2" d="M493.206 298.629C493.206 302.086 491.034 304.886 488.356 304.886C485.679 304.886 483.52 302.086 483.52 298.629C483.52 295.172 485.692 292.358 488.356 292.358C491.021 292.358 493.206 295.172 493.206 298.629Z" fill="white"/>
<path d="M497.305 298.629C497.305 303.015 494.573 306.58 491.143 306.58C487.714 306.58 484.995 303.015 484.995 298.629C484.995 294.243 487.728 290.678 491.143 290.678C494.559 290.678 497.305 294.23 497.305 298.629Z" fill="#263238"/>
<path opacity="0.5" d="M496.062 298.629C496.062 301.143 494.477 303.179 492.537 303.179C490.597 303.179 489.026 301.143 489.026 298.629C489.026 296.115 490.597 294.079 492.537 294.079C494.477 294.079 496.062 296.115 496.062 298.629Z" fill="black"/>
<path d="M516.173 273.941C514.697 281.551 513.249 295.473 518.577 300.528C518.577 300.528 512.402 309.832 501.308 307.988C492.879 306.621 498.507 298.957 498.507 298.957C502.319 297.358 503.194 292.262 501.704 286.36L516.173 273.941Z" fill="#B97964"/>
<path opacity="0.2" d="M510.271 279.01L501.718 286.36C502.087 287.734 502.334 289.137 502.456 290.555C505.694 290.076 510.12 286.456 510.462 283.122C510.652 281.752 510.587 280.357 510.271 279.01Z" fill="black"/>
<path d="M498.057 253.858C502.224 256.795 500.202 261.604 490.529 269.009C486.758 263.913 486.293 254.158 489.422 251.754C492.551 249.349 494.422 251.385 498.057 253.858Z" fill="#263238"/>
<path d="M516.036 262.055C515.558 269.624 515.503 274.911 513.44 279.27C512.659 280.906 511.606 282.399 510.325 283.683C502.497 291.607 489.832 286.866 487.359 276.592C487.277 276.278 487.209 275.936 487.154 275.594C485.282 266.29 486.936 251.918 496.718 247.983C498.937 247.076 501.351 246.75 503.731 247.038C506.111 247.325 508.379 248.216 510.318 249.626C512.257 251.035 513.804 252.917 514.812 255.092C515.82 257.268 516.255 259.664 516.077 262.055H516.036Z" fill="#B97964"/>
<path d="M500.666 264.842C500.666 265.689 500.215 266.359 499.669 266.359C499.122 266.359 498.685 265.689 498.685 264.842C498.685 263.995 499.122 263.339 499.669 263.326C500.215 263.312 500.611 264.023 500.666 264.842Z" fill="#263238"/>
<path d="M491.13 264.842C491.13 265.676 490.679 266.359 490.132 266.359C489.586 266.359 489.149 265.689 489.149 264.842C489.149 263.995 489.6 263.326 490.146 263.326C490.693 263.326 491.143 264.009 491.13 264.842Z" fill="#263238"/>
<path d="M494.245 265.239C493.235 267.799 491.884 270.212 490.228 272.411C490.801 272.819 491.456 273.098 492.147 273.227C492.838 273.357 493.549 273.335 494.231 273.163L494.245 265.239Z" fill="#A24E3F"/>
<path d="M503.262 261.85C503.364 261.884 503.474 261.884 503.576 261.85C503.682 261.771 503.752 261.654 503.772 261.524C503.793 261.394 503.762 261.261 503.685 261.154C503.23 260.518 502.629 260.002 501.932 259.648C501.235 259.293 500.464 259.112 499.682 259.118C499.557 259.125 499.438 259.18 499.352 259.271C499.266 259.363 499.218 259.484 499.218 259.61C499.232 259.739 499.295 259.858 499.394 259.942C499.493 260.026 499.621 260.068 499.751 260.061C500.367 260.066 500.973 260.217 501.519 260.502C502.065 260.787 502.536 261.198 502.893 261.7C502.941 261.749 502.999 261.787 503.062 261.813C503.125 261.839 503.193 261.852 503.262 261.85Z" fill="#263238"/>
<path d="M486.799 261.632C486.894 261.632 486.987 261.606 487.067 261.555C487.147 261.504 487.21 261.431 487.25 261.345C487.502 260.789 487.881 260.3 488.355 259.916C488.829 259.532 489.386 259.263 489.982 259.131C490.113 259.111 490.23 259.042 490.312 258.938C490.393 258.834 490.431 258.703 490.419 258.571C490.399 258.445 490.331 258.33 490.23 258.252C490.128 258.173 490.001 258.136 489.873 258.148C489.108 258.289 488.389 258.611 487.773 259.086C487.158 259.561 486.665 260.176 486.334 260.88C486.277 260.996 486.268 261.13 486.309 261.253C486.35 261.376 486.438 261.477 486.553 261.536L486.799 261.632Z" fill="#263238"/>
<path d="M511.951 252.915C507.142 254.568 507.716 259.746 514.929 269.569C519.984 265.744 523.127 256.495 520.831 253.325C518.536 250.155 516.159 251.494 511.951 252.915Z" fill="#263238"/>
<path d="M520.927 270.294C520.206 272.788 518.526 274.895 516.255 276.155C513.235 277.78 510.967 275.267 511.172 272.056C511.35 269.132 513.153 264.747 516.487 264.46C517.213 264.406 517.942 264.534 518.606 264.833C519.27 265.132 519.849 265.592 520.29 266.172C520.731 266.751 521.02 267.432 521.132 268.152C521.243 268.872 521.173 269.608 520.927 270.294Z" fill="#B97964"/>
<path d="M501.923 275.007C501.179 276.1 500.147 276.967 498.942 277.512C497.737 278.057 496.404 278.258 495.092 278.095" stroke="#263238" stroke-width="0.526291" stroke-linecap="round" stroke-linejoin="round"/>
<path d="M511.91 256.399C511.91 256.399 512.62 250.825 505.516 249.568C498.412 248.311 494.381 255.62 494.381 255.62C494.139 254.784 494.077 253.906 494.199 253.044C494.322 252.182 494.626 251.356 495.092 250.62C493.147 252.01 491.746 254.034 491.13 256.344C491.13 256.344 489.968 254.978 490.46 251.043L487.933 255.265C487.933 255.265 485.651 248.434 495.092 243.188C504.532 237.941 525.968 244.813 519.424 253.639L511.91 256.399Z" fill="#263238"/>
<path d="M513.604 299.667C513.604 299.667 520.517 296.375 519.069 293.314C519.069 293.314 520.695 293.314 521.228 295.678C521.761 298.042 519.971 301.416 515.285 303.629L513.604 299.667Z" fill="#263238"/>
<path d="M510.093 311.581C513.488 311.581 516.241 308.021 516.241 303.629C516.241 299.238 513.488 295.678 510.093 295.678C506.698 295.678 503.945 299.238 503.945 303.629C503.945 308.021 506.698 311.581 510.093 311.581Z" fill="#263238"/>
<path d="M517.006 303.629C517.006 307.086 514.834 309.887 512.156 309.887C509.478 309.887 507.306 307.086 507.306 303.629C507.306 300.173 509.478 297.358 512.156 297.358C514.834 297.358 517.006 300.159 517.006 303.629Z" fill="#263238"/>
<path opacity="0.2" d="M517.006 303.629C517.006 307.086 514.834 309.887 512.156 309.887C509.478 309.887 507.306 307.086 507.306 303.629C507.306 300.173 509.478 297.358 512.156 297.358C514.834 297.358 517.006 300.159 517.006 303.629Z" fill="white"/>
<path d="M456.81 354.904L448.777 360.806C448.777 360.806 398.773 290.322 385.343 291.128C365.055 292.276 328.235 402.107 328.235 402.107L348.305 400.016C348.305 400.016 381.723 332.511 385.343 337.594C395.317 351.611 418.132 395.945 418.132 395.945L454.255 391.027L456.81 354.904Z" fill="#263238"/>
<path opacity="0.2" d="M456.81 354.904L455.444 374.454V374.536L454.31 390.931L418.187 395.849L417.75 395.002C414.553 388.841 394.524 350.368 385.343 337.484C381.723 332.416 348.305 399.921 348.305 399.921L328.235 402.011C328.235 402.011 331.733 391.573 337.17 377.105C349.357 344.63 371.326 291.825 385.343 291.033C398.773 290.268 448.777 360.71 448.777 360.71L456.81 354.904Z" fill="white"/>
<path opacity="0.3" d="M455.581 374.468L455.444 374.536C453.846 375.52 438.175 384.961 417.75 395.03C414.553 388.868 394.524 350.395 385.343 337.512C381.723 332.443 348.305 399.948 348.305 399.948L328.235 402.038C328.235 402.038 331.733 391.6 337.17 377.132L355.218 373.58C355.218 373.58 380.07 323.289 387.925 329.451C395.043 335.039 418.406 372.282 418.406 372.282L455.458 374.427L455.581 374.468Z" fill="black"/>
<path d="M473.902 410.796C447.315 410.796 264.528 408.815 264.528 408.815V394.729L452.616 373.252L456.81 354.904L511.323 380.234C511.323 380.234 500.502 410.796 473.902 410.796Z" fill="#263238"/>
<path opacity="0.2" d="M473.902 410.796C447.315 410.796 264.528 408.815 264.528 408.815V394.729L452.616 373.252L456.81 354.904L511.323 380.234C511.323 380.234 500.502 410.796 473.902 410.796Z" fill="white"/>
<path d="M262.984 412.162L262.424 391.587L271.714 390.221L271.878 412.804L262.984 412.162Z" fill="#263238"/>
</svg>
