<svg width="19" height="19" viewBox="0 0 19 19" fill="none" xmlns="http://www.w3.org/2000/svg">
<path d="M2.78035 17.8226H2.7822H3.35119H3.35153H3.3517H3.35188H3.41201H4.48389H4.55019L4.49852 17.8505L2.78035 17.8226ZM3.34737 17.8158L2.78035 17.8155L2.78035 16.9637L2.78035 16.7553H2.8368H3.30065H3.92303H5.13215H6.5304L4.56162 17.8164L4.48063 17.8164L3.40837 17.8159L3.36251 17.8158L3.35516 17.8158L3.35138 17.8158L3.34737 17.8158ZM12.7424 16.7553H14.1407H15.3498H15.9722H16.436H16.4925V16.9637L12.7424 16.7553ZM3.92303 9.87317C3.91545 9.86275 3.9079 9.85233 3.90036 9.84189C3.9079 9.83053 3.91546 9.81918 3.92303 9.80784V9.87317ZM9.09424 14.0378L9.31989 13.9192C9.33417 13.9097 9.34883 13.9009 9.36381 13.8928C9.44725 13.8475 9.54093 13.8235 9.63641 13.8235C9.73189 13.8235 9.82557 13.8475 9.90901 13.8928C9.924 13.9009 9.93865 13.9097 9.95293 13.9192L10.1786 14.0378C10.0673 14.0867 9.95525 14.134 9.84258 14.1797C9.83137 14.1842 9.82015 14.1887 9.80893 14.1932C9.79153 14.2002 9.77412 14.2072 9.7567 14.2141C9.71668 14.23 9.67659 14.2457 9.63641 14.2612C9.59624 14.2457 9.55614 14.23 9.51613 14.2141C9.4987 14.2072 9.48129 14.2002 9.46389 14.1932C9.45267 14.1887 9.44145 14.1842 9.43024 14.1797C9.31757 14.134 9.20556 14.0867 9.09424 14.0378ZM15.3498 9.87317V9.80784C15.3574 9.81918 15.3649 9.83053 15.3725 9.84189C15.3649 9.85232 15.3574 9.86275 15.3498 9.87317Z" fill="#223172" stroke="#223172" stroke-width="30"/>
</svg>
