<svg width="30" height="30" viewBox="0 0 30 30" fill="none" xmlns="http://www.w3.org/2000/svg">
<path d="M5.25 4.5C4.65326 4.5 4.08097 4.73705 3.65901 5.15901C3.23705 5.58097 3 6.15326 3 6.75V12.75C3 13.3467 3.23705 13.919 3.65901 14.341C4.08097 14.7629 4.65326 15 5.25 15H24.75C25.3467 15 25.919 14.7629 26.341 14.341C26.7629 13.919 27 13.3467 27 12.75V6.75C27 6.15326 26.7629 5.58097 26.341 5.15901C25.919 4.73705 25.3467 4.5 24.75 4.5H5.25ZM5.25 18C4.65326 18 4.08097 18.2371 3.65901 18.659C3.23705 19.081 3 19.6533 3 20.25V23.25C3 23.8467 3.23705 24.419 3.65901 24.841C4.08097 25.2629 4.65326 25.5 5.25 25.5H11.25C11.8467 25.5 12.419 25.2629 12.841 24.841C13.2629 24.419 13.5 23.8467 13.5 23.25V20.25C13.5 19.6533 13.2629 19.081 12.841 18.659C12.419 18.2371 11.8467 18 11.25 18H5.25ZM18.75 18C18.1533 18 17.581 18.2371 17.159 18.659C16.7371 19.081 16.5 19.6533 16.5 20.25V23.25C16.5 23.8467 16.7371 24.419 17.159 24.841C17.581 25.2629 18.1533 25.5 18.75 25.5H24.75C25.3467 25.5 25.919 25.2629 26.341 24.841C26.7629 24.419 27 23.8467 27 23.25V20.25C27 19.6533 26.7629 19.081 26.341 18.659C25.919 18.2371 25.3467 18 24.75 18H18.75Z" fill="#223172"/>
</svg>
