<svg width="20" height="20" viewBox="0 0 20 20" fill="none" xmlns="http://www.w3.org/2000/svg">
<path d="M2.721 2.05101L18.076 9.61701C18.1597 9.65827 18.2302 9.72215 18.2795 9.80141C18.3289 9.88068 18.355 9.97216 18.355 10.0655C18.355 10.1589 18.3289 10.2503 18.2795 10.3296C18.2302 10.4089 18.1597 10.4727 18.076 10.514L2.72 18.08C2.63397 18.1223 2.53761 18.1389 2.44239 18.128C2.34717 18.117 2.2571 18.0789 2.18292 18.0182C2.10874 17.9575 2.05357 17.8768 2.02397 17.7856C1.99438 17.6945 1.99161 17.5967 2.016 17.504L3.537 11.759C3.56165 11.666 3.6126 11.5822 3.68372 11.5174C3.75485 11.4527 3.84313 11.4098 3.938 11.394L10.819 10.247C10.86 10.2402 10.8987 10.2233 10.9315 10.1978C10.9643 10.1723 10.9903 10.1391 11.007 10.101L11.025 10.041C11.0343 9.9854 11.0246 9.92827 10.9974 9.87889C10.9701 9.82951 10.927 9.79079 10.875 9.76901L10.819 9.75301L3.9 8.60001C3.80531 8.584 3.71724 8.54107 3.64631 8.47635C3.57538 8.41162 3.52458 8.32784 3.5 8.23501L2.016 2.62801C1.99136 2.53525 1.99393 2.43736 2.02342 2.34602C2.05291 2.25468 2.10806 2.17376 2.18229 2.11292C2.25652 2.05209 2.34669 2.0139 2.44204 2.00292C2.53739 1.99194 2.63388 2.00863 2.72 2.05101H2.721Z" fill="#223172"/>
</svg>
