<svg width="40" height="40" viewBox="0 0 40 40" fill="none" xmlns="http://www.w3.org/2000/svg">
<path d="M4 10C4 8.93913 4.42143 7.92172 5.17157 7.17157C5.92172 6.42143 6.93913 6 8 6H22C23.0609 6 24.0783 6.42143 24.8284 7.17157C25.5786 7.92172 26 8.93913 26 10V18C26 19.0609 25.5786 20.0783 24.8284 20.8284C24.0783 21.5786 23.0609 22 22 22H18L12 28V22H8C6.93913 22 5.92172 21.5786 5.17157 20.8284C4.42143 20.0783 4 19.0609 4 18V10Z" fill="#223172"/>
<path d="M30 14V18C30 20.1217 29.1572 22.1566 27.6569 23.6569C26.1566 25.1571 24.1218 26 22 26H19.656L16.124 29.534C16.684 29.832 17.322 30 18 30H22L28 36V30H32C33.0609 30 34.0783 29.5786 34.8284 28.8284C35.5786 28.0783 36 27.0609 36 26V18C36 16.9391 35.5786 15.9217 34.8284 15.1716C34.0783 14.4214 33.0609 14 32 14H30Z" fill="#223172"/>
</svg>
