<svg width="29" height="29" viewBox="0 0 29 29" fill="none" xmlns="http://www.w3.org/2000/svg">
<path d="M25.3708 8.30742C25.0119 7.47622 24.4942 6.723 23.847 6.08991C23.1992 5.45494 22.4355 4.95033 21.5973 4.60354C20.7282 4.24251 19.796 4.05771 18.8549 4.05988C17.5346 4.05988 16.2464 4.42143 15.1269 5.10435C14.8591 5.26772 14.6047 5.44716 14.3636 5.64266C14.1226 5.44716 13.8682 5.26772 13.6004 5.10435C12.4809 4.42143 11.1927 4.05988 9.87238 4.05988C8.92164 4.05988 8.00036 4.24199 7.12996 4.60354C6.28902 4.9517 5.53111 5.45251 4.88031 6.08991C4.23219 6.72228 3.71446 7.47568 3.35645 8.30742C2.98419 9.17246 2.79404 10.0911 2.79404 11.0365C2.79404 11.9283 2.97615 12.8576 3.3377 13.803C3.64033 14.593 4.07419 15.4125 4.62857 16.2401C5.507 17.5497 6.71485 18.9156 8.21461 20.3002C10.6999 22.5953 13.1612 24.1808 13.2656 24.2451L13.9003 24.6522C14.1815 24.8316 14.5431 24.8316 14.8243 24.6522L15.459 24.2451C15.5635 24.1781 18.022 22.5953 20.51 20.3002C22.0098 18.9156 23.2176 17.5497 24.096 16.2401C24.6504 15.4125 25.087 14.593 25.3869 13.803C25.7485 12.8576 25.9306 11.9283 25.9306 11.0365C25.9332 10.0911 25.7431 9.17246 25.3708 8.30742V8.30742Z" fill="#F47736"/>
</svg>
