<svg width="40" height="44" viewBox="0 0 40 44" fill="none" xmlns="http://www.w3.org/2000/svg">
<path fill-rule="evenodd" clip-rule="evenodd" d="M20 2.67122C9.875 2.67122 1.66667 11.4966 1.66667 22.3827C1.66667 33.2688 9.875 42.0942 20 42.0942C30.125 42.0942 38.3333 33.2688 38.3333 22.3827C38.3333 11.4966 30.125 2.67122 20 2.67122ZM21.6667 29.5505C21.6667 30.0257 21.4911 30.4815 21.1785 30.8176C20.866 31.1537 20.442 31.3424 20 31.3424C19.558 31.3424 19.1341 31.1537 18.8215 30.8176C18.5089 30.4815 18.3333 30.0257 18.3333 29.5505V24.1746H13.3333C12.8913 24.1746 12.4674 23.9858 12.1548 23.6498C11.8423 23.3137 11.6667 22.8579 11.6667 22.3827C11.6667 21.9074 11.8423 21.4516 12.1548 21.1156C12.4674 20.7795 12.8913 20.5907 13.3333 20.5907H18.3333V15.2149C18.3333 14.7396 18.5089 14.2838 18.8215 13.9478C19.1341 13.6117 19.558 13.4229 20 13.4229C20.442 13.4229 20.866 13.6117 21.1785 13.9478C21.4911 14.2838 21.6667 14.7396 21.6667 15.2149V20.5907H26.6667C27.1087 20.5907 27.5326 20.7795 27.8452 21.1156C28.1577 21.4516 28.3333 21.9074 28.3333 22.3827C28.3333 22.8579 28.1577 23.3137 27.8452 23.6498C27.5326 23.9858 27.1087 24.1746 26.6667 24.1746H21.6667V29.5505Z" fill="#223172"/>
</svg>
