<svg width="24" height="24" viewBox="0 0 24 24" fill="none" xmlns="http://www.w3.org/2000/svg">
<path d="M15.5647 16.5934L15.8751 16.8179L16.1727 16.5767C16.5696 16.2549 17.0757 16.0625 17.625 16.0625C18.9004 16.0625 19.9375 17.0996 19.9375 18.375C19.9375 19.6504 18.9004 20.6875 17.625 20.6875C16.3496 20.6875 15.3125 19.6504 15.3125 18.375C15.3125 18.1519 15.3435 17.9367 15.4026 17.7349L15.5015 17.3964L15.2159 17.1896L10.6034 13.8497L10.2063 13.5622L9.91102 13.9535C9.31686 14.741 8.37444 15.25 7.3125 15.25C5.51677 15.25 4.0625 13.7957 4.0625 12C4.0625 10.2043 5.51677 8.75 7.3125 8.75C8.37444 8.75 9.31686 9.25899 9.91102 10.0465L10.2063 10.4378L10.6034 10.1503L15.2159 6.81045L15.5015 6.60361L15.4026 6.26512C15.3435 6.06311 15.3125 5.85026 15.3125 5.625C15.3125 4.34958 16.3496 3.3125 17.625 3.3125C18.9004 3.3125 19.9375 4.34958 19.9375 5.625C19.9375 6.90042 18.9004 7.9375 17.625 7.9375C17.0757 7.9375 16.5696 7.74509 16.1727 7.42332L15.8751 7.18208L15.5647 7.40662L10.7085 10.9199L10.4532 11.1046L10.5097 11.4146C10.5802 11.8017 10.5802 12.1983 10.5097 12.5854L10.4532 12.8954L10.7085 13.0801L15.5647 16.5934ZM19.3438 5.625C19.3438 4.6762 18.5738 3.90625 17.625 3.90625C16.6762 3.90625 15.9062 4.6762 15.9062 5.625C15.9062 6.5738 16.6762 7.34375 17.625 7.34375C18.5738 7.34375 19.3438 6.5738 19.3438 5.625ZM4.75 12C4.75 13.4129 5.89964 14.5625 7.3125 14.5625C8.72536 14.5625 9.875 13.4129 9.875 12C9.875 10.5871 8.72536 9.4375 7.3125 9.4375C5.89964 9.4375 4.75 10.5871 4.75 12ZM15.9062 18.375C15.9062 19.3238 16.6762 20.0938 17.625 20.0938C18.5738 20.0938 19.3438 19.3238 19.3438 18.375C19.3438 17.4262 18.5738 16.6562 17.625 16.6562C16.6762 16.6562 15.9062 17.4262 15.9062 18.375Z" fill="#223172" stroke="#223172"/>
</svg>
