<svg width="19" height="20" viewBox="0 0 19 20" fill="none" xmlns="http://www.w3.org/2000/svg">
<path d="M3.46846 11.6787C3.01388 11.6787 2.57791 11.4981 2.25647 11.1767C1.93503 10.8552 1.75445 10.4193 1.75445 9.96469C1.75445 9.5101 1.93503 9.07413 2.25647 8.75269C2.57791 8.43125 3.01388 8.25067 3.46846 8.25067C3.92305 8.25067 4.35901 8.43125 4.68046 8.75269C5.0019 9.07413 5.18248 9.5101 5.18248 9.96469C5.18248 10.4193 5.0019 10.8552 4.68046 11.1767C4.35901 11.4981 3.92305 11.6787 3.46846 11.6787ZM9.18185 11.6787C8.72726 11.6787 8.2913 11.4981 7.96986 11.1767C7.64842 10.8552 7.46783 10.4193 7.46783 9.96469C7.46783 9.5101 7.64842 9.07413 7.96986 8.75269C8.2913 8.43125 8.72726 8.25067 9.18185 8.25067C9.63643 8.25067 10.0724 8.43125 10.3938 8.75269C10.7153 9.07413 10.8959 9.5101 10.8959 9.96469C10.8959 10.4193 10.7153 10.8552 10.3938 11.1767C10.0724 11.4981 9.63643 11.6787 9.18185 11.6787ZM14.8952 11.6787C14.4406 11.6787 14.0047 11.4981 13.6832 11.1767C13.3618 10.8552 13.1812 10.4193 13.1812 9.96469C13.1812 9.5101 13.3618 9.07413 13.6832 8.75269C14.0047 8.43125 14.4406 8.25067 14.8952 8.25067C15.3498 8.25067 15.7858 8.43125 16.1072 8.75269C16.4287 9.07413 16.6092 9.5101 16.6092 9.96469C16.6092 10.4193 16.4287 10.8552 16.1072 11.1767C15.7858 11.4981 15.3498 11.6787 14.8952 11.6787Z" fill="black"/>
</svg>
