<svg width="19" height="20" viewBox="0 0 19 20" fill="none" xmlns="http://www.w3.org/2000/svg">
<path d="M4.12503 11.7645C3.67044 11.7645 3.23447 11.5839 2.91303 11.2624C2.59159 10.941 2.41101 10.505 2.41101 10.0505C2.41101 9.59587 2.59159 9.1599 2.91303 8.83846C3.23447 8.51702 3.67044 8.33644 4.12503 8.33644C4.57961 8.33644 5.01558 8.51702 5.33702 8.83846C5.65846 9.1599 5.83904 9.59587 5.83904 10.0505C5.83904 10.505 5.65846 10.941 5.33702 11.2624C5.01558 11.5839 4.57961 11.7645 4.12503 11.7645ZM9.83841 11.7645C9.38383 11.7645 8.94786 11.5839 8.62642 11.2624C8.30498 10.941 8.12439 10.505 8.12439 10.0505C8.12439 9.59587 8.30498 9.1599 8.62642 8.83846C8.94786 8.51702 9.38383 8.33644 9.83841 8.33644C10.293 8.33644 10.729 8.51702 11.0504 8.83846C11.3718 9.1599 11.5524 9.59587 11.5524 10.0505C11.5524 10.505 11.3718 10.941 11.0504 11.2624C10.729 11.5839 10.293 11.7645 9.83841 11.7645ZM15.5518 11.7645C15.0972 11.7645 14.6612 11.5839 14.3398 11.2624C14.0184 10.941 13.8378 10.505 13.8378 10.0505C13.8378 9.59587 14.0184 9.1599 14.3398 8.83846C14.6612 8.51702 15.0972 8.33644 15.5518 8.33644C16.0064 8.33644 16.4423 8.51702 16.7638 8.83846C17.0852 9.1599 17.2658 9.59587 17.2658 10.0505C17.2658 10.505 17.0852 10.941 16.7638 11.2624C16.4423 11.5839 16.0064 11.7645 15.5518 11.7645Z" fill="black"/>
</svg>
